<svg xmlns="http://www.w3.org/2000/svg" xmlns:xlink="http://www.w3.org/1999/xlink" version="1.1" x="0px" y="0px" width="15.895px" height="15.893px" viewBox="0 0 15.895 15.893" enable-background="new 0 0 15.895 15.893" xml:space="preserve"><style>.style0{fill:	#A19594;}</style><g><path d="M11.755 4.44l-4.792 6.187L4.239 7.814C3.951 7.5 3.5 7.5 3.2 7.8 C2.881 8.1 2.9 8.6 3.2 8.857l3.325 3.436c0.142 0.1 0.3 0.2 0.5 0.229c0.014 0 0 0 0.041-0.001 c0.218-0.012 0.419-0.118 0.552-0.29l5.322-6.871c0.254-0.328 0.194-0.799-0.134-1.052C12.479 4.1 12 4.1 11.8 4.44z" class="style0"/><path d="M11.895 0H4C1.8 0 0 1.8 0 4v7.893c0 2.2 1.8 4 4 4h7.895c2.2 0 4-1.8 4-4V4C15.895 1.8 14.1 0 11.9 0z M14.395 11.893c0 1.378-1.121 2.5-2.5 2.5H4c-1.379 0-2.5-1.122-2.5-2.5V4c0-1.378 1.121-2.5 2.5-2.5h7.895 c1.379 0 2.5 1.1 2.5 2.5V11.893z" class="style0"/></g></svg>