<svg xmlns="http://www.w3.org/2000/svg" xmlns:xlink="http://www.w3.org/1999/xlink" version="1.1" x="0px" y="0px" width="20.882px" height="20.881px" viewBox="0 0 20.882 20.881" enable-background="new 0 0 20.882 20.881" xml:space="preserve"><style>.style0{fill:	#A7B6B9;}</style><g><path d="M16.882 0H4C1.8 0 0 1.8 0 4v12.881c0 2.2 1.8 4 4 4h12.882c2.2 0 4-1.8 4-4V4 C20.882 1.8 19.1 0 16.9 0z M19.632 16.881c0 1.517-1.233 2.75-2.75 2.75H4c-1.517 0-2.75-1.233-2.75-2.75V4 c0-1.517 1.233-2.75 2.75-2.75h12.882c1.517 0 2.8 1.2 2.8 2.75V16.881z" class="style0"/></g></svg>