<svg xmlns="http://www.w3.org/2000/svg" xmlns:xlink="http://www.w3.org/1999/xlink" version="1.1" x="0px" y="0px" width="15.895px" height="15.893px" viewBox="0 0 15.895 15.893" enable-background="new 0 0 15.895 15.893" xml:space="preserve"><style>.style0{fill:	#EB632E;}</style><g><path d="M11.895 0H4C1.8 0 0 1.8 0 4v7.893c0 2.2 1.8 4 4 4h7.895c2.2 0 4-1.8 4-4V4C15.895 1.8 14.1 0 11.9 0z M14.395 11.893c0 1.378-1.121 2.5-2.5 2.5H4c-1.379 0-2.5-1.122-2.5-2.5V4c0-1.378 1.121-2.5 2.5-2.5h7.895 c1.379 0 2.5 1.1 2.5 2.5V11.893z" class="style0"/></g></svg>