<svg xmlns="http://www.w3.org/2000/svg" xmlns:xlink="http://www.w3.org/1999/xlink" version="1.1" x="0px" y="0px" width="19.4px" height="19.4px" viewBox="0 0 19.4 19.4" enable-background="new 0 0 19.4 19.4" xml:space="preserve"><style>.style0{fill:	#F9F7F7;}</style><g><path d="M10.2 4.6c-0.1-0.2-0.3-0.3-0.5-0.3c-0.2 0-0.4 0.1-0.5 0.3l-4.6 7.7c-0.1 0.1-0.1 0.2-0.1 0.3 c0 0.2 0.1 0.4 0.3 0.5c0.3 0.2 0.7 0.1 0.9-0.2l4.1-6.8l4 6.8c0.1 0.3 0.5 0.4 0.9 0.2c0.3-0.2 0.4-0.6 0.2-0.9L10.2 4.6z" class="style0"/><path d="M19.4 9.7c0-5.3-4.3-9.7-9.7-9.7C4.4 0 0 4.3 0 9.7s4.4 9.7 9.7 9.7C15.1 19.4 19.4 15 19.4 9.7L19.4 9.7z M1.3 9.7c0-4.6 3.8-8.4 8.4-8.4c4.6 0 8.4 3.8 8.4 8.4s-3.8 8.4-8.4 8.4C5 18.1 1.3 14.3 1.3 9.7L1.3 9.7z" class="style0"/></g></svg>