<svg xmlns="http://www.w3.org/2000/svg" xmlns:xlink="http://www.w3.org/1999/xlink" version="1.1" x="0px" y="0px" width="17.5px" height="17.5px" viewBox="0 0 17.5 17.5" enable-background="new 0 0 17.5 17.5" xml:space="preserve"><style>.style0{fill:	#EC632F;}</style><g><path d="M8.8 0C3.9 0 0 3.9 0 8.8c0 4.9 3.9 8.8 8.8 8.8c4.8 0 8.8-3.9 8.8-8.8C17.6 3.9 13.6 0 8.8 0L8.8 0z M8.8 16.3c-4.1 0-7.5-3.4-7.5-7.5c0-4.1 3.4-7.5 7.5-7.5c4.1 0 7.5 3.4 7.5 7.5C16.3 12.9 12.9 16.3 8.8 16.3L8.8 16.3z" class="style0"/><path d="M13.6 8.1H4c-0.3 0-0.6 0.3-0.6 0.6S3.6 9.4 4 9.4h9.6c0.3 0 0.6-0.3 0.6-0.6S13.9 8.1 13.6 8.1L13.6 8.1z" class="style0"/></g></svg>