<svg xmlns="http://www.w3.org/2000/svg" xmlns:xlink="http://www.w3.org/1999/xlink" version="1.1" x="0px" y="0px" width="23.073px" height="23.072px" viewBox="0 0 23.073 23.072" enable-background="new 0 0 23.073 23.072" xml:space="preserve"><style>.style0{fill:	#7C989A;}</style><g><path d="M11.536 0C5.175 0 0 5.2 0 11.535c0 6.4 5.2 11.5 11.5 11.537s11.537-5.176 11.537-11.537 C23.073 5.2 17.9 0 11.5 0z M11.536 21.822c-5.672 0-10.286-4.615-10.286-10.287C1.25 5.9 5.9 1.2 11.5 1.2 s10.287 4.6 10.3 10.285C21.823 17.2 17.2 21.8 11.5 21.822z" class="style0"/><path d="M16.959 6.598l-6.839 8.549l-4.053-4.053c-0.244-0.244-0.641-0.244-0.885 0 c-0.243 0.244-0.243 0.6 0 0.884l4.547 4.547c0.118 0.1 0.3 0.2 0.4 0.183c0.012 0 0 0 0.034-0.001 c0.178-0.01 0.343-0.095 0.454-0.233l7.275-9.094c0.216-0.27 0.172-0.663-0.098-0.878C17.57 6.3 17.2 6.3 17 6.598z" class="style0"/></g></svg>