<svg xmlns="http://www.w3.org/2000/svg" xmlns:xlink="http://www.w3.org/1999/xlink" version="1.1" x="0px" y="0px" width="19.357px" height="19.355px" viewBox="0 0 19.357 19.355" enable-background="new 0 0 19.357 19.355" xml:space="preserve"><style>.style0{fill:	#F1EDEC;}</style><g><path d="M9.678 0C4.342 0 0 4.3 0 9.678s4.342 9.7 9.7 9.677c5.337 0 9.68-4.341 9.68-9.677S15.015 0 9.7 0 z M9.678 18.105c-4.647 0-8.428-3.78-8.428-8.427S5.03 1.2 9.7 1.25c4.648 0 8.4 3.8 8.4 8.428S14.326 18.1 9.7 18.105z " class="style0"/><path d="M13.945 5.414c-0.244-0.244-0.641-0.244-0.885 0L9.68 8.795L6.298 5.414c-0.244-0.244-0.641-0.244-0.885 0 c-0.243 0.244-0.243 0.6 0 0.884l3.382 3.382l-3.382 3.382c-0.243 0.244-0.243 0.6 0 0.885c0.122 0.1 0.3 0.2 0.4 0.2 s0.32-0.061 0.442-0.183l3.382-3.382l3.381 3.382c0.122 0.1 0.3 0.2 0.4 0.183s0.32-0.061 0.442-0.183 c0.243-0.244 0.243-0.641 0-0.885l-3.382-3.382l3.382-3.382C14.188 6.1 14.2 5.7 13.9 5.414z" class="style0"/></g></svg>