<svg xmlns="http://www.w3.org/2000/svg" xmlns:xlink="http://www.w3.org/1999/xlink" version="1.1" x="0px" y="0px" width="19.357px" height="19.355px" viewBox="0 0 19.357 19.355" enable-background="new 0 0 19.357 19.355" xml:space="preserve"><style>.style0{fill:	#608688;}</style><g><path d="M7.158 4.572C6.861 4.4 6.5 4.5 6.3 4.79C6.125 5.1 6.2 5.5 6.5 5.646l6.783 4 L6.52 13.707c-0.297 0.176-0.395 0.56-0.218 0.856c0.117 0.2 0.3 0.3 0.5 0.306c0.109 0 0.219-0.028 0.319-0.088 l7.688-4.568c0.189-0.112 0.306-0.317 0.306-0.537c0-0.221-0.116-0.425-0.306-0.537L7.158 4.572z" class="style0"/><path d="M9.679 0C4.342 0 0 4.3 0 9.678c0 5.3 4.3 9.7 9.7 9.678s9.679-4.342 9.679-9.678 C19.357 4.3 15 0 9.7 0z M9.679 18.105c-4.647 0-8.429-3.78-8.429-8.428c0-4.647 3.781-8.428 8.429-8.428 s8.429 3.8 8.4 8.428C18.107 14.3 14.3 18.1 9.7 18.105z" class="style0"/></g></svg>