<?xml version="1.0" encoding="utf-8"?>
<!-- Generator: Adobe Illustrator 15.0.0, SVG Export Plug-In . SVG Version: 6.00 Build 0)  -->
<!DOCTYPE svg PUBLIC "-//W3C//DTD SVG 1.1//EN" "http://www.w3.org/Graphics/SVG/1.1/DTD/svg11.dtd">
<svg version="1.1" id="Layer_1" xmlns="http://www.w3.org/2000/svg" xmlns:xlink="http://www.w3.org/1999/xlink" x="0px" y="0px"
	 width="19.355px" height="19.355px" viewBox="0 0 19.355 19.355" enable-background="new 0 0 19.355 19.355" xml:space="preserve">
<g>
	<path fill="#F9F7F7" d="M7.157,4.573C6.86,4.4,6.5,4.5,6.3,4.791C6.124,5.1,6.2,5.5,6.5,5.648l6.784,4L6.5,13.679
		c-0.297,0.176-0.396,0.561-0.218,0.856c0.116,0.199,0.3,0.3,0.5,0.306c0.108,0,0.219-0.028,0.318-0.088l7.688-4.568
		c0.188-0.111,0.306-0.316,0.306-0.537s-0.116-0.425-0.306-0.538L7.157,4.573z"/>
	<path fill="#F9F7F7" d="M9.678,0C4.341,0,0,4.3,0,9.678c0,5.3,4.3,9.7,9.7,9.679c5.337,0,9.679-4.342,9.679-9.679
		C19.356,4.3,15,0,9.7,0H9.678z M9.678,18.106c-4.646,0-8.428-3.78-8.428-8.429c0-4.646,3.781-8.428,8.428-8.428
		c4.647,0,8.4,3.8,8.4,8.428C18.106,14.3,14.3,18.1,9.7,18.106H9.678z"/>
</g>
</svg>
