<svg xmlns="http://www.w3.org/2000/svg" xmlns:xlink="http://www.w3.org/1999/xlink" version="1.1" x="0px" y="0px" width="30.021px" height="27.077px" viewBox="0 0 30.021 27.077" enable-background="new 0 0 30.021 27.077" xml:space="preserve"><style>.style0{opacity:	0.46;}</style><g><path d="M27.355 17.82c-1.925-3.335-5.075-8.791-7-12.125L18.51 2.5c-1.925-3.334-5.075-3.334-7 0L9.665 5.7 c-1.925 3.334-5.075 8.791-7 12.125l-1.844 3.194c-1.925 3.334-0.35 6.1 3.5 6.062H8.01c3.85 0 10.2 0 14 0H25.7 c3.85 0 5.425-2.728 3.5-6.062L27.355 17.82z M15.009 23.26c-1.095 0-1.981-0.888-1.981-1.981c0-1.096 0.887-1.982 1.981-1.982 s1.981 0.9 2 1.982C16.991 22.4 16.1 23.3 15 23.26z M16.211 16.733c0 0.664-0.537 1.203-1.201 1.2 s-1.204-0.539-1.204-1.203l-0.854-7.518c0-1.136 0.922-2.057 2.058-2.057s2.056 0.9 2.1 2.057L16.211 16.733z" class="style0"/></g></svg>