<svg xmlns="http://www.w3.org/2000/svg" xmlns:xlink="http://www.w3.org/1999/xlink" version="1.1" x="0px" y="0px" width="24.737px" height="25.21px" viewBox="0 0 24.737 25.21" enable-background="new 0 0 24.737 25.21" xml:space="preserve"><style>.style0{fill:	#444243;}</style><g><path d="M17.664 9.342l-4.669 3.726V4.523c0-0.345-0.28-0.625-0.625-0.625s-0.625 0.28-0.625 0.625v8.544 L7.082 9.342C6.811 9.1 6.4 9.2 6.2 9.44c-0.215 0.27-0.171 0.7 0.1 0.878l5.679 4.5 c0.029 0 0.1 0 0.1 0.051c0.025 0 0 0 0.1 0.041c0.073 0 0.1 0 0.2 0 c0.076 0 0.151-0.018 0.224-0.045c0.027-0.011 0.05-0.027 0.075-0.042c0.03-0.017 0.063-0.027 0.091-0.05l5.684-4.536 c0.27-0.215 0.314-0.608 0.099-0.878C18.327 9.2 17.9 9.1 17.7 9.342z" class="style0"/><path d="M20.112 0H4.625C2.075 0 0 2.1 0 4.625v13.129v2.831v0.584c0 2.2 2.1 4 4.6 4.041h15.487 c2.55 0 4.625-1.812 4.625-4.041v-0.584v-2.831V4.625C24.737 2.1 22.7 0 20.1 0z M1.25 4.6 c0-1.861 1.514-3.375 3.375-3.375h15.487c1.861 0 3.4 1.5 3.4 3.375v13.129H1.25V4.625z" class="style0"/></g></svg>