<?xml version="1.0" encoding="utf-8"?>
<!-- Generator: Adobe Illustrator 20.0.0, SVG Export Plug-In . SVG Version: 6.00 Build 0)  -->
<!DOCTYPE svg PUBLIC "-//W3C//DTD SVG 1.1//EN" "http://www.w3.org/Graphics/SVG/1.1/DTD/svg11.dtd" [
	<!ENTITY st0 "fill:#3BBBB8;">
]>
<svg version="1.1" id="Layer_1" xmlns="http://www.w3.org/2000/svg" xmlns:xlink="http://www.w3.org/1999/xlink" x="0px" y="0px"
	 width="30.32471px" height="25.2959px" viewBox="0 0 30.32471 25.2959" style="enable-background:new 0 0 30.32471 25.2959;"
	 xml:space="preserve">
<path style="&st0;" d="M30.32471,8.5415v-1h-8.36914l0.03003-0.03003l2.75415-2.75366c0.74219-0.74219,0.74219-1.9502,0-2.69238
	l-1.50879-1.50879c-0.74219-0.74219-1.95117-0.74219-2.69336,0l-2.80469,2.80518L1.7373,19.35742L1.64502,19.4502L0,25.2959
	l5.84619-1.64453l1.62592-1.62598h22.8526v-1H8.47211l3.49402-3.49414h18.35858v-1H12.96606l3.49506-3.49512h13.86359v-1H17.46106
	l3.49457-3.49463H30.32471z M21.24463,1.26367c0.35352-0.35254,0.92578-0.35254,1.2793,0l1.50879,1.50879
	c0.35156,0.35254,0.35156,0.92578,0,1.27832L21.58063,6.5025L18.7934,3.71527L21.24463,1.26367z M1.44531,23.85059l0.89545-3.18268
	l2.28687,2.28687L1.44531,23.85059z M5.58472,22.4978l-2.78711-2.78711L18.08643,4.42236l2.78711,2.78711L5.58472,22.4978z"/>
</svg>
