<?xml version="1.0" encoding="utf-8"?>
<!-- Generator: Adobe Illustrator 20.0.0, SVG Export Plug-In . SVG Version: 6.00 Build 0)  -->
<!DOCTYPE svg PUBLIC "-//W3C//DTD SVG 1.1//EN" "http://www.w3.org/Graphics/SVG/1.1/DTD/svg11.dtd" [
	<!ENTITY st0 "fill:#3BBBB8;">
]>
<svg version="1.1" id="Layer_1" xmlns="http://www.w3.org/2000/svg" xmlns:xlink="http://www.w3.org/1999/xlink" x="0px" y="0px"
	 width="29.00342px" height="27.18701px" viewBox="0 0 29.00342 27.18701" style="enable-background:new 0 0 29.00342 27.18701;"
	 xml:space="preserve">
<path style="&st0;" d="M7.31885,27.18701v-4.80957c0-0.54688-0.44531-0.99219-0.99219-0.99219H2.50342
	c-0.71143,0.00098-1.34912-0.21387-1.79785-0.6543C0.25049,20.28369,0,19.62842,0,18.88525V2.5C0,1.12158,1.12158,0,2.5,0h24.00342
	c1.37891,0,2.5,1.12158,2.5,2.5v16.38525c0,1.37891-1.12109,2.5-2.5,2.5H13.53125c-0.26514,0-0.51416,0.10352-0.70215,0.29004
	L7.31885,27.18701z M6.32666,20.38525c1.09863,0,1.99219,0.89355,1.99219,1.99219v2.39551l3.80371-3.80469
	c0.37646-0.37598,0.87695-0.58301,1.40869-0.58301h12.97217c0.82715,0,1.5-0.67285,1.5-1.5V2.5c0-0.82715-0.67285-1.5-1.5-1.5H2.5
	C1.67285,1,1,1.67285,1,2.5v16.38525c0,0.47949,0.14062,0.87109,0.40674,1.13281c0.25537,0.25098,0.60498,0.36133,1.08496,0.36719
	H6.32666z"/>
<g>
	<rect x="6.21631" y="6.28027" style="&st0;" width="16.70312" height="1"/>
	<rect x="6.21631" y="10.12012" style="&st0;" width="16.70312" height="1"/>
	<rect x="6.21631" y="13.95947" style="&st0;" width="16.70312" height="1"/>
</g>
</svg>
