<?xml version="1.0" encoding="utf-8"?>
<!-- Generator: Adobe Illustrator 20.0.0, SVG Export Plug-In . SVG Version: 6.00 Build 0)  -->
<!DOCTYPE svg PUBLIC "-//W3C//DTD SVG 1.1//EN" "http://www.w3.org/Graphics/SVG/1.1/DTD/svg11.dtd" [
	<!ENTITY st0 "fill:#a9a9a9;">
	<!ENTITY st1 "fill:none;stroke:#a9a9a9;stroke-miterlimit:10;">
]>
<svg version="1.1" id="Layer_1" xmlns="http://www.w3.org/2000/svg" xmlns:xlink="http://www.w3.org/1999/xlink" x="0px" y="0px"
	 width="26.94434px" height="23.06592px" viewBox="0 0 26.94434 23.06592" style="enable-background:new 0 0 26.94434 23.06592;"
	 xml:space="preserve">
<g>
	<g>
		<path style="&st0;" d="M20.40234,20.0249H3.67822c-0.27637,0-0.5-0.22363-0.5-0.5s0.22363-0.5,0.5-0.5h16.72412
			c1.37891,0,2.5-1.12109,2.5-2.5V3.59668c0-0.27637,0.22363-0.5,0.5-0.5s0.5,0.22363,0.5,0.5V16.5249
			C23.90234,18.45459,22.33203,20.0249,20.40234,20.0249z"/>
	</g>
</g>
<g>
	<g>
		<g>
			<path style="&st0;" d="M21.44434,23.06592H6.71973c-0.27637,0-0.5-0.22363-0.5-0.5s0.22363-0.5,0.5-0.5h14.72461
				c2.48145,0,4.5-2.01855,4.5-4.5V6.63867c0-0.27637,0.22363-0.5,0.5-0.5s0.5,0.22363,0.5,0.5v10.92725
				C26.94434,20.59814,24.47656,23.06592,21.44434,23.06592z"/>
		</g>
	</g>
</g>
<g>
	<g>
		<path style="&st1;" d="M0.49996,7.4998"/>
	</g>
</g>
<path style="&st0;" d="M18.40234,0H2.5C1.12158,0,0,1.12158,0,2.5v12.0249c0,1.37891,1.12158,2.5,2.5,2.5h15.90234
	c1.37891,0,2.5-1.12109,2.5-2.5V2.5C20.90234,1.12158,19.78125,0,18.40234,0z M2.5,1h15.90234c0.82715,0,1.5,0.67285,1.5,1.5
	v2.94287H1V2.5C1,1.67285,1.67285,1,2.5,1z M18.40234,16.0249H2.5c-0.82715,0-1.5-0.67285-1.5-1.5V6.44287h18.90234v8.08203
	C19.90234,15.35205,19.22949,16.0249,18.40234,16.0249z"/>
<g>
	<g>
		<circle style="&st0;" cx="3.15733" cy="3.3649" r="1.10403"/>
	</g>
</g>
<g>
	<g>
		<circle style="&st0;" cx="6.57918" cy="3.3649" r="1.10403"/>
	</g>
</g>
</svg>
