<?xml version="1.0" encoding="utf-8"?>
<!-- Generator: Adobe Illustrator 20.0.0, SVG Export Plug-In . SVG Version: 6.00 Build 0)  -->
<!DOCTYPE svg PUBLIC "-//W3C//DTD SVG 1.1//EN" "http://www.w3.org/Graphics/SVG/1.1/DTD/svg11.dtd" [
	<!ENTITY st0 "fill:#a9a9a9;">
]>
<svg version="1.1" id="Layer_1" xmlns="http://www.w3.org/2000/svg" xmlns:xlink="http://www.w3.org/1999/xlink" x="0px" y="0px"
	 width="20.90234px" height="17.0249px" viewBox="0 0 20.90234 17.0249" style="enable-background:new 0 0 20.90234 17.0249;"
	 xml:space="preserve">
<path style="&st0;" d="M18.40234,0H2.5C1.12158,0,0,1.12158,0,2.5v12.0249c0,1.37891,1.12158,2.5,2.5,2.5h15.90234
	c1.37891,0,2.5-1.12109,2.5-2.5V2.5C20.90234,1.12158,19.78125,0,18.40234,0z M2.5,1h15.90234c0.82715,0,1.5,0.67285,1.5,1.5
	v2.94336H1V2.5C1,1.67285,1.67285,1,2.5,1z M18.40234,16.0249H2.5c-0.82715,0-1.5-0.67285-1.5-1.5V6.44336h18.90234v8.08154
	C19.90234,15.35205,19.22949,16.0249,18.40234,16.0249z"/>
<circle style="&st0;" cx="3.1575" cy="3.36525" r="1.10403"/>
<circle style="&st0;" cx="6.57933" cy="3.36525" r="1.104"/>
</svg>
