<?xml version="1.0" encoding="utf-8"?>
<!-- Generator: Adobe Illustrator 18.1.0, SVG Export Plug-In . SVG Version: 6.00 Build 0)  -->
<svg version="1.1" id="Layer_1" xmlns="http://www.w3.org/2000/svg" xmlns:xlink="http://www.w3.org/1999/xlink" x="0px" y="0px"
	 viewBox="255.8 166.5 460.5 476.5" enable-background="new 255.8 166.5 460.5 476.5" xml:space="preserve">
<g id="Layer_1_1_">
</g>
<g id="Type">
	<g>
		<g>
			<path fill="#FFFFFF" d="M486,312.6c-83.5,0-167.4-11.7-230.2-34.5l183,199.2v125.2c0,22.3,21.1,40.4,47.3,40.4
				c26.1,0,47.3-18.1,47.3-40.4V477.4l183-199.2C653.4,300.9,569.5,312.6,486,312.6z"/>
		</g>
		<path fill="#FFFFFF" d="M713.7,216.7c0,27.7-101.9,50.1-227.7,50.1c-125.8,0-227.7-22.4-227.7-50.1c0-27.7,101.9-50.2,227.7-50.2
			C611.7,166.5,713.7,188.9,713.7,216.7z"/>
	</g>
</g>
</svg>
