<?xml version="1.0" encoding="utf-8"?>
<!-- Generator: Adobe Illustrator 18.0.0, SVG Export Plug-In . SVG Version: 6.00 Build 0)  -->
<!DOCTYPE svg PUBLIC "-//W3C//DTD SVG 1.1//EN" "http://www.w3.org/Graphics/SVG/1.1/DTD/svg11.dtd" [
	<!ENTITY st0 "fill:#FFFFFF;">
]>
<svg version="1.1" id="Layer_1" xmlns="http://www.w3.org/2000/svg" xmlns:xlink="http://www.w3.org/1999/xlink" x="0px" y="0px"
	 viewBox="0 0 79.2 17.3" style="enable-background:new 0 0 79.2 17.3;" xml:space="preserve">
<g>
	<path style="&st0;" d="M24.6,0.9c-5.3,0-7.7,3.9-7.7,7.8c0,3.8,2.4,7.9,7.7,7.9c5.2,0,7.6-4.1,7.7-7.8c0-2.3-0.8-4.3-2.2-5.7
		C28.7,1.6,26.9,0.9,24.6,0.9z M24.6,14.6c-3.9,0-5.7-3.1-5.7-5.9c0-1.8,0.6-3.3,1.6-4.4c1-1,2.4-1.5,4.1-1.5c3.9,0,5.7,3,5.7,5.9
		C30.3,11.6,28.6,14.6,24.6,14.6z"/>
	<path style="&st0;" d="M43.3,2.8c1.6,0,3.1,0.6,4.1,1.7l0.3,0.3l1.4-1.2l-0.3-0.3c-1.5-1.5-3.4-2.3-5.5-2.3c-2.3,0-4.2,0.7-5.6,2.2
		c-1.4,1.4-2.2,3.5-2.2,5.7c0,3.8,2.4,7.7,7.8,7.7c2.1,0,4.1-0.8,5.5-2.3l0.3-0.3l-1.4-1.3l-0.3,0.3c-1.1,1.1-2.6,1.7-4.2,1.7
		c-4.3,0-5.8-3.1-5.8-5.8c0-1.7,0.6-3.3,1.6-4.3C40.1,3.4,41.6,2.8,43.3,2.8z"/>
	<polygon style="&st0;" points="66.9,1.1 66.9,3 72.1,3 72.1,16.3 74.1,16.3 74.1,3 79.2,3 79.2,1.1 	"/>
	<polygon style="&st0;" points="7.9,13 4.4,5.6 2.2,1.1 0,1.1 6.9,15.2 7.9,17.3 15.8,1.1 13.6,1.1 	"/>
	<polygon style="&st0;" points="59.5,0 51.6,16.2 53.8,16.2 59.5,4.4 65.2,16.2 67.4,16.2 60.5,2.1 	"/>
</g>
</svg>
