<?xml version="1.0" encoding="utf-8"?>
<!-- Generator: Adobe Illustrator 18.1.0, SVG Export Plug-In . SVG Version: 6.00 Build 0)  -->
<svg version="1.1" id="Layer_1" xmlns="http://www.w3.org/2000/svg" xmlns:xlink="http://www.w3.org/1999/xlink" x="0px" y="0px"
	 viewBox="0 0 24 24" enable-background="new 0 0 24 24" xml:space="preserve">
<g>
	<g>
		<g>
			<g>
				<polyline fill="none" stroke="#FFFFFF" stroke-width="2" stroke-miterlimit="10" points="8,18.6 12,22.5 16,18.6 				"/>
			</g>
		</g>
		<g>
			<line fill="none" stroke="#FFFFFF" stroke-width="2" stroke-miterlimit="10" x1="12" y1="22.5" x2="12" y2="1.4"/>
		</g>
		<g>
			<g>
				<polyline fill="none" stroke="#FFFFFF" stroke-width="2" stroke-miterlimit="10" points="16,5.4 12,1.4 8,5.4 				"/>
			</g>
		</g>
		<g>
			<g>
				<polyline fill="none" stroke="#FFFFFF" stroke-width="2" stroke-miterlimit="10" points="18.6,16 22.5,12 18.6,8 				"/>
			</g>
		</g>
		<g>
			<line fill="none" stroke="#FFFFFF" stroke-width="2" stroke-miterlimit="10" x1="22.5" y1="12" x2="1.4" y2="12"/>
		</g>
		<g>
			<g>
				<polyline fill="none" stroke="#FFFFFF" stroke-width="2" stroke-miterlimit="10" points="5.4,8 1.4,12 5.4,16 				"/>
			</g>
		</g>
		<g>
			<line fill="none" stroke="#FFFFFF" stroke-width="2" stroke-miterlimit="10" x1="1.4" y1="12" x2="22.5" y2="12"/>
		</g>
	</g>
	<g>
		<g>
			<g>
				<polyline fill="none" stroke="#A7A9AC" stroke-width="2" stroke-miterlimit="10" points="8,18.6 12,22.5 16,18.6 				"/>
				<polyline fill="none" stroke="#A7A9AC" stroke-width="2" stroke-miterlimit="10" points="8,18.6 12,22.5 16,18.6 				"/>
			</g>
		</g>
		<g>
			<line fill="none" stroke="#A7A9AC" stroke-width="2" stroke-miterlimit="10" x1="12" y1="22.5" x2="12" y2="1.4"/>
			<line fill="none" stroke="#A7A9AC" stroke-width="2" stroke-miterlimit="10" x1="12" y1="22.5" x2="12" y2="1.4"/>
		</g>
		<g>
			<g>
				<polyline fill="none" stroke="#A7A9AC" stroke-width="2" stroke-miterlimit="10" points="16,5.4 12,1.4 8,5.4 				"/>
				<polyline fill="none" stroke="#A7A9AC" stroke-width="2" stroke-miterlimit="10" points="16,5.4 12,1.4 8,5.4 				"/>
			</g>
		</g>
		<g>
			<g>
				<polyline fill="none" stroke="#A7A9AC" stroke-width="2" stroke-miterlimit="10" points="18.6,16 22.5,12 18.6,8 				"/>
				<polyline fill="none" stroke="#A7A9AC" stroke-width="2" stroke-miterlimit="10" points="18.6,16 22.5,12 18.6,8 				"/>
			</g>
		</g>
		<g>
			<line fill="none" stroke="#A7A9AC" stroke-width="2" stroke-miterlimit="10" x1="22.5" y1="12" x2="1.4" y2="12"/>
			<line fill="none" stroke="#A7A9AC" stroke-width="2" stroke-miterlimit="10" x1="22.5" y1="12" x2="1.4" y2="12"/>
		</g>
		<g>
			<g>
				<polyline fill="none" stroke="#A7A9AC" stroke-width="2" stroke-miterlimit="10" points="5.4,8 1.4,12 5.4,16 				"/>
				<polyline fill="none" stroke="#A7A9AC" stroke-width="2" stroke-miterlimit="10" points="5.4,8 1.4,12 5.4,16 				"/>
			</g>
		</g>
		<g>
			<line fill="none" stroke="#A7A9AC" stroke-width="2" stroke-miterlimit="10" x1="1.4" y1="12" x2="22.5" y2="12"/>
			<line fill="none" stroke="#A7A9AC" stroke-width="2" stroke-miterlimit="10" x1="1.4" y1="12" x2="22.5" y2="12"/>
		</g>
	</g>
</g>
</svg>
