<?xml version="1.0" encoding="utf-8"?>
<!-- Generator: Adobe Illustrator 20.0.0, SVG Export Plug-In . SVG Version: 6.00 Build 0)  -->
<!DOCTYPE svg PUBLIC "-//W3C//DTD SVG 1.1//EN" "http://www.w3.org/Graphics/SVG/1.1/DTD/svg11.dtd" [
	<!ENTITY st0 "fill:#3BBBB8;">
]>
<svg version="1.1" id="Layer_1" xmlns="http://www.w3.org/2000/svg" xmlns:xlink="http://www.w3.org/1999/xlink" x="0px" y="0px"
	 width="25.60693px" height="17.8164px" viewBox="0 0 25.60693 17.8164" style="enable-background:new 0 0 25.60693 17.8164;"
	 xml:space="preserve">
<path style="&st0;" d="M7.76464,8.36621c-2.30664,0-4.18311-1.87695-4.18311-4.18359C3.58153,1.87647,5.45799,0,7.76464,0
	s4.18311,1.87646,4.18311,4.18262C11.94775,6.48925,10.07129,8.36621,7.76464,8.36621z M7.76464,1
	C6.00927,1,4.58153,2.42773,4.58153,4.18262c0,1.75537,1.42773,3.18359,3.18311,3.18359s3.18311-1.42822,3.18311-3.18359
	C10.94775,2.42773,9.52002,1,7.76464,1z"/>
<path style="&st0;" d="M18.47802,9.49023c-2.06543,0-3.74512-1.68018-3.74512-3.74561c0-2.06494,1.67969-3.74463,3.74512-3.74463
	s3.74512,1.67969,3.74512,3.74463C22.22314,7.81005,20.54345,9.49023,18.47802,9.49023z M18.47802,3
	c-1.51367,0-2.74512,1.23145-2.74512,2.74463c0,1.51416,1.23145,2.74561,2.74512,2.74561s2.74512-1.23145,2.74512-2.74561
	C21.22314,4.23144,19.9917,3,18.47802,3z"/>
<path style="&st0;" d="M24.60595,13.46093c-0.41797-1.81543-2.17188-3.23828-3.99316-3.23828h-4.05566
	c-0.95129,0-1.90625,0.41852-2.67499,1.1142c-0.87079-1.18347-2.27716-2.00482-3.69464-2.00482H5.58448
	c-2.00293,0-4.00684,1.625-4.4668,3.62305L0,17.8164h15.14404h0.62793h9.83496L24.60595,13.46093z M1.25586,16.8164l0.83643-3.63672
	c0.36133-1.57031,1.92773-2.84766,3.49219-2.84766h4.60302c1.56445,0,3.13135,1.27734,3.49219,2.84766l0.83643,3.63672H1.25586z
	 M15.54205,16.8164l-0.88776-3.86133c-0.05829-0.25342-0.14227-0.50037-0.24707-0.7392
	c0.60516-0.61011,1.39728-0.99323,2.1499-0.99323h4.05566c1.35156,0,2.70605,1.10449,3.01855,2.46289l0.71973,3.13086
	C24.35106,16.81639,15.54205,16.81639,15.54205,16.8164z"/>
</svg>
