<?xml version="1.0" encoding="utf-8"?>
<!-- Generator: Adobe Illustrator 20.0.0, SVG Export Plug-In . SVG Version: 6.00 Build 0)  -->
<!DOCTYPE svg PUBLIC "-//W3C//DTD SVG 1.1//EN" "http://www.w3.org/Graphics/SVG/1.1/DTD/svg11.dtd" [
	<!ENTITY st0 "fill:#F6852E;">
]>
<svg version="1.1" id="Layer_1" xmlns="http://www.w3.org/2000/svg" xmlns:xlink="http://www.w3.org/1999/xlink" x="0px" y="0px"
	 width="32.16943px" height="25.78369px" viewBox="0 0 32.16943 25.78369" style="enable-background:new 0 0 32.16943 25.78369;"
	 xml:space="preserve">
<path style="&st0;" d="M11.146,11.85645c-3.26904,0-5.92822-2.65918-5.92822-5.92822S7.87695,0,11.146,0
	s5.92822,2.65918,5.92822,5.92822S14.41504,11.85645,11.146,11.85645z M11.146,1C8.42871,1,6.21777,3.21094,6.21777,5.92822
	s2.21094,4.92822,4.92822,4.92822s4.92822-2.21094,4.92822-4.92822S13.86328,1,11.146,1z"/>
<path style="&st0;" d="M22.6499,25.78369H0l1.58057-6.87305c0.65381-2.84277,3.50342-5.15625,6.35254-5.15625h6.78369
	c2.84912,0,5.69873,2.31348,6.35205,5.15625L22.6499,25.78369z M1.25586,24.78369h20.13818l-1.2998-5.64844
	c-0.55566-2.41602-2.96777-4.38086-5.37744-4.38086H7.93311c-2.41016,0-4.82275,1.96484-5.37793,4.38086L1.25586,24.78369z"/>
<polygon style="&st0;" points="25.8667,14.05811 21.74854,9.80273 22.46729,9.10742 25.78271,12.5332 31.37842,5.30859 
	32.16943,5.9209 "/>
</svg>
