<?xml version="1.0" encoding="utf-8"?>
<!-- Generator: Adobe Illustrator 21.0.0, SVG Export Plug-In . SVG Version: 6.00 Build 0)  -->
<svg version="1.1" id="Layer_1" xmlns="http://www.w3.org/2000/svg" xmlns:xlink="http://www.w3.org/1999/xlink" x="0px" y="0px"
	 viewBox="0 0 50.5 49.5" style="enable-background:new 0 0 50.5 49.5;" xml:space="preserve">
<style type="text/css">
	.st0{fill:none;stroke:#3BBBB8;stroke-linecap:round;stroke-linejoin:round;}
	.st1{fill:#5A5A5A;}
	.st2{fill:none;stroke:#A9A9A9;stroke-miterlimit:10;}
	.st3{fill:none;stroke:#3BBBB8;stroke-linecap:round;stroke-linejoin:round;stroke-miterlimit:10;}
	.st4{fill:#A9A9A9;}
	.st5{fill:none;stroke:#FFFFFF;stroke-linecap:round;stroke-linejoin:round;stroke-miterlimit:10;}
	.st6{fill:#FFFFFF;}
	.st7{fill:none;stroke:#3BBBB8;stroke-linecap:round;}
	.st8{fill:none;stroke:#3BBBB8;}
	.st9{fill:none;}
</style>
<path class="st0" d="M-43.1,272.1v7.4h7.4v7.9c0,1.1-0.9,2-2,2h-17c-1.1,0-2-0.9-2-2v-13.2c0-1.1,0.9-2,2-2H-43.1z"/>
<polygon class="st0" points="-35.7,279.4 -43.1,272.1 -43.1,279.4 "/>
<path class="st1" d="M135.1,409.5h149.3c4.4,0,8-3.6,8-8v-75.1c0-4.4-3.6-8-8-8H135.1c-4.4,0-8,3.6-8,8v75.1
	C127.1,405.9,130.7,409.5,135.1,409.5"/>
<path class="st2" d="M135.1,409.5h149.3c4.4,0,8-3.6,8-8v-75.1c0-4.4-3.6-8-8-8H135.1c-4.4,0-8,3.6-8,8v75.1
	C127.1,405.9,130.7,409.5,135.1,409.5z"/>
<ellipse class="st3" cx="209.7" cy="363.9" rx="24.7" ry="24.2"/>
<path class="st3" d="M205.7,353l15.8,9c1.5,0.9,1.5,3,0,3.9l-15.8,9c-1.5,0.8-3.3-0.2-3.3-1.9V355
	C202.4,353.2,204.3,352.2,205.7,353z"/>
<path class="st4" d="M319.6,409.5h149.3c4.4,0,8-3.6,8-8v-75.1c0-4.4-3.6-8-8-8H319.6c-4.4,0-8,3.6-8,8v75.1
	C311.6,405.9,315.2,409.5,319.6,409.5"/>
<path class="st2" d="M319.6,409.5h149.3c4.4,0,8-3.6,8-8v-75.1c0-4.4-3.6-8-8-8H319.6c-4.4,0-8,3.6-8,8v75.1
	C311.6,405.9,315.2,409.5,319.6,409.5z"/>
<ellipse class="st5" cx="394.3" cy="363.9" rx="24.7" ry="24.2"/>
<path class="st5" d="M390.3,353l15.8,9c1.5,0.9,1.5,3,0,3.9l-15.8,9c-1.5,0.8-3.3-0.2-3.3-1.9V355
	C386.9,353.2,388.8,352.2,390.3,353z"/>
<path class="st4" d="M-49.4,409.5H99.9c4.4,0,8-3.6,8-8v-75.1c0-4.4-3.6-8-8-8H-49.4c-4.4,0-8,3.6-8,8v75.1
	C-57.4,405.9-53.8,409.5-49.4,409.5"/>
<path class="st2" d="M-49.4,409.5H99.9c4.4,0,8-3.6,8-8v-75.1c0-4.4-3.6-8-8-8H-49.4c-4.4,0-8,3.6-8,8v75.1
	C-57.4,405.9-53.8,409.5-49.4,409.5z"/>
<ellipse class="st5" cx="25.2" cy="363.9" rx="24.7" ry="24.2"/>
<path class="st5" d="M21.2,353l15.8,9c1.5,0.9,1.5,3,0,3.9l-15.8,9c-1.5,0.8-3.3-0.2-3.3-1.9V355C17.9,353.2,19.7,352.2,21.2,353z"
	/>
<g>
	<path class="st6" d="M25.2,0C11.3,0,0,11.1,0,24.7c0,13.6,11.3,24.7,25.2,24.7s25.2-11.1,25.2-24.7C50.5,11.1,39.2,0,25.2,0z
		 M25.2,48.5C11.9,48.5,1,37.8,1,24.7C1,11.6,11.9,1,25.2,1c13.4,0,24.2,10.6,24.2,23.7C49.5,37.8,38.6,48.5,25.2,48.5z"/>
	<path class="st6" d="M37.3,22.4l-15.8-8.9c-0.9-0.5-1.9-0.5-2.7,0c-0.9,0.5-1.4,1.4-1.4,2.4v17.9c0,1,0.5,1.9,1.4,2.4
		c0.4,0.3,0.9,0.4,1.4,0.4c0.5,0,0.9-0.1,1.3-0.4l15.8-9c0.9-0.5,1.4-1.4,1.4-2.4C38.7,23.7,38.2,22.8,37.3,22.4z M36.8,26.2
		l-15.8,9c-0.5,0.3-1.2,0.3-1.7,0c-0.5-0.3-0.9-0.9-0.9-1.5V15.8c0-0.6,0.3-1.2,0.9-1.5c0.3-0.2,0.6-0.2,0.9-0.2
		c0.3,0,0.6,0.1,0.9,0.2c0,0,0,0,0,0l15.8,9c0.6,0.3,0.9,0.9,0.9,1.5C37.7,25.4,37.4,25.9,36.8,26.2z"/>
</g>
<path class="st7" d="M356.4,504c0.9,0,1.6-0.7,1.6-1.6v-13.2c0-0.9-0.7-1.6-1.6-1.6h-19.3c-0.9,0-1.6,0.7-1.6,1.6v13.2
	c0,0.9,0.5,1.6,1.6,1.6h0h3.1c0.7,0,1.2,0.5,1.2,1.2v2.9l3.8-3.8c0.2-0.2,0.5-0.4,0.8-0.4H356.4z"/>
<line class="st8" x1="353.5" y1="492.7" x2="340" y2="492.7"/>
<line class="st8" x1="353.5" y1="495.8" x2="340" y2="495.8"/>
<line class="st8" x1="353.5" y1="498.9" x2="340" y2="498.9"/>
<rect x="-230.7" y="-1276" class="st9" width="1250" height="1953"/>
<rect x="-230.7" y="-1276" class="st9" width="1250" height="1953"/>
</svg>
