<?xml version="1.0" encoding="utf-8"?>
<!-- Generator: Adobe Illustrator 21.0.0, SVG Export Plug-In . SVG Version: 6.00 Build 0)  -->
<svg version="1.1" id="Layer_1" xmlns="http://www.w3.org/2000/svg" xmlns:xlink="http://www.w3.org/1999/xlink" x="0px" y="0px"
	 viewBox="0 0 24.6 18.4" style="enable-background:new 0 0 24.6 18.4;" xml:space="preserve">
<style type="text/css">
	.st0{fill:#FFFFFF;}
</style>
<g>
	<polygon class="st0" points="4.2,0 2.2,0 2.2,7.2 0,7.2 0,9.2 2.2,9.2 2.2,18.4 4.2,18.4 4.2,9.2 6.4,9.2 6.4,7.2 4.2,7.2 	"/>
	<polygon class="st0" points="13.3,0 11.3,0 11.3,11.2 9.1,11.2 9.1,13.2 11.3,13.2 11.3,18.4 13.3,18.4 13.3,13.2 15.5,13.2 
		15.5,11.2 13.3,11.2 	"/>
	<polygon class="st0" points="24.6,4.2 22.4,4.2 22.4,0 20.4,0 20.4,4.2 18.2,4.2 18.2,6.2 20.4,6.2 20.4,18.4 22.4,18.4 22.4,6.2 
		24.6,6.2 	"/>
</g>
</svg>
