<?xml version="1.0" encoding="utf-8"?>
<!-- Generator: Adobe Illustrator 21.0.2, SVG Export Plug-In . SVG Version: 6.00 Build 0)  -->
<svg version="1.1" id="Layer_1" xmlns="http://www.w3.org/2000/svg" xmlns:xlink="http://www.w3.org/1999/xlink" x="0px" y="0px"
	 viewBox="0 0 17 18.4" style="enable-background:new 0 0 17 18.4;" xml:space="preserve">
<style type="text/css">
	.st0{fill:#F54456;}
</style>
<g>
	<path class="st0" d="M16.5,3h-4.5V1.6c0-0.9-0.7-1.6-1.6-1.6H6.6C5.7,0,5,0.7,5,1.6V3H0.5C0.2,3,0,3.2,0,3.5S0.2,4,0.5,4h1.2v11.8
		c0,1.4,1.2,2.6,2.6,2.6h8.4c1.4,0,2.6-1.2,2.6-2.6V4h1.2C16.7,4,17,3.7,17,3.5S16.7,3,16.5,3z M6,1.6C6,1.2,6.3,1,6.6,1h3.8
		c0.3,0,0.6,0.2,0.6,0.6V3H6V1.6z M14.3,15.8c0,0.9-0.7,1.6-1.6,1.6H4.3c-0.9,0-1.6-0.7-1.6-1.6V4h11.6V15.8z"/>
	<path class="st0" d="M5.3,15.3c0.3,0,0.5-0.2,0.5-0.5V6.5C5.8,6.3,5.6,6,5.3,6S4.8,6.3,4.8,6.5v8.3C4.8,15.1,5,15.3,5.3,15.3z"/>
	<path class="st0" d="M8.5,15.3c0.3,0,0.5-0.2,0.5-0.5V6.5C9,6.3,8.8,6,8.5,6S8,6.3,8,6.5v8.3C8,15.1,8.2,15.3,8.5,15.3z"/>
	<path class="st0" d="M11.7,15.3c0.3,0,0.5-0.2,0.5-0.5V6.5C12.2,6.3,12,6,11.7,6s-0.5,0.2-0.5,0.5v8.3
		C11.2,15.1,11.4,15.3,11.7,15.3z"/>
</g>
</svg>
