<?xml version="1.0" encoding="utf-8"?>
<!-- Generator: Adobe Illustrator 20.0.0, SVG Export Plug-In . SVG Version: 6.00 Build 0)  -->
<!DOCTYPE svg PUBLIC "-//W3C//DTD SVG 1.1//EN" "http://www.w3.org/Graphics/SVG/1.1/DTD/svg11.dtd" [
	<!ENTITY st0 "fill:#828282;">
]>
<svg version="1.1" id="Layer_1" xmlns="http://www.w3.org/2000/svg" xmlns:xlink="http://www.w3.org/1999/xlink" x="0px" y="0px"
	 width="38.99902px" height="26.71436px" viewBox="0 0 38.99902 26.71436" style="enable-background:new 0 0 38.99902 26.71436;"
	 xml:space="preserve">
<path style="&st0;" d="M31.32324,22.30811h-1.87207c-0.27637,0-0.5-0.22363-0.5-0.5s0.22363-0.5,0.5-0.5l1.78613-0.00586
	c0.00293,0,0.00684,0,0.01074,0c3.76172,0,6.75098-2.99219,6.75098-6.66943c0-3.68066-2.99512-6.67529-6.67578-6.67529
	c-0.89844,0-1.77051,0.17578-2.59277,0.52246L28.2207,8.69434l-0.16211-0.52832C26.74121,3.87988,22.84082,1,18.35303,1
	c-5.43115,0-9.88037,4.25342-10.12939,9.68359L8.19482,11.3125l-0.60596-0.17041c-0.46875-0.13184-0.94189-0.19873-1.40674-0.19873
	C3.32471,10.94336,1,13.26807,1,16.12549s2.32471,5.18262,5.18213,5.18262c0.08203,0,0.16211-0.00586,0.24316-0.01172
	l0.53564-0.03906l0.00732,0.05078h4.47949c0.27637,0,0.5,0.22363,0.5,0.5s-0.22363,0.5-0.5,0.5l-5.41064-0.00195
	C2.69482,22.229,0,19.48584,0,16.12549c0-3.40869,2.77344-6.18213,6.18213-6.18213c0.35986,0,0.72314,0.0332,1.08545,0.09912
	C7.82715,4.36475,12.58643,0,18.35303,0c4.75146,0,8.90283,2.93848,10.49268,7.36621
	c0.7959-0.27148,1.62695-0.40869,2.47754-0.40869c4.23242,0,7.67578,3.44336,7.67578,7.67529S35.55566,22.30811,31.32324,22.30811z"
	/>
<path style="&st0;" d="M15.67285,26.71436V12.56543l11.41895,7.07373L15.67285,26.71436z M16.67285,14.36133v10.55615
	l8.52051-5.27832L16.67285,14.36133z"/>
</svg>
