<svg xmlns="http://www.w3.org/2000/svg" xmlns:xlink="http://www.w3.org/1999/xlink" version="1.1" x="0px" y="0px" width="40.969px" height="40.974px" viewBox="0 0 40.969 40.974" enable-background="new 0 0 40.969 40.974" xml:space="preserve"><style>.style0{fill:	#608688;}</style><g><path d="M0 20.487c0 11.3 9.2 20.5 20.5 20.487c11.294 0 20.482-9.19 20.482-20.487 C40.969 9.2 31.8 0 20.5 0C9.19 0 0 9.2 0 20.487z M2 20.487C2 10.3 10.3 2 20.5 2c10.191 0 18.5 8.3 18.5 18.5 s-8.291 18.487-18.482 18.487C10.293 39 2 30.7 2 20.487z" class="style0"/><path d="M10.443 19.487h18.373l-10.41-10.13c-0.396-0.385-0.404-1.019-0.02-1.414s1.018-0.404 1.414-0.02 l12.174 11.847c0.002 0 0 0 0 0.006c0.184 0.2 0.3 0.4 0.3 0.711s-0.115 0.53-0.299 0.7 c-0.002 0.002-0.002 0.004-0.004 0.006L19.801 33.041c-0.194 0.189-0.446 0.283-0.697 0.283c-0.261 0-0.521-0.102-0.717-0.303 c-0.385-0.396-0.376-1.029 0.02-1.414l10.407-10.119h-18.37c-0.553 0-1-0.448-1-1S9.891 19.5 10.4 19.487z" class="style0"/></g></svg>