<svg xmlns="http://www.w3.org/2000/svg" xmlns:xlink="http://www.w3.org/1999/xlink" version="1.1" x="0px" y="0px" width="40.969px" height="40.974px" viewBox="0 0 40.969 40.974" enable-background="new 0 0 40.969 40.974" xml:space="preserve"><style>.style0{fill:	#608688;}</style><g><path d="M20.482 0C9.188 0 0 9.2 0 20.487c0 11.3 9.2 20.5 20.5 20.5 c11.296 0 20.486-9.19 20.486-20.487C40.969 9.2 31.8 0 20.5 0z M20.482 38.974C10.291 39 2 30.7 2 20.5 S10.291 2 20.5 2c10.193 0 18.5 8.3 18.5 18.487S30.676 39 20.5 38.974z" class="style0"/><path d="M30.525 19.487H12.152l10.41-10.13c0.396-0.385 0.404-1.019 0.02-1.414s-1.018-0.404-1.414-0.02 L8.994 19.771c-0.002 0.001-0.002 0.004-0.004 0.006c-0.184 0.181-0.299 0.432-0.299 0.711s0.115 0.5 0.3 0.7 c0.001 0 0 0 0 0.006l12.174 11.836c0.194 0.2 0.4 0.3 0.7 0.283c0.261 0 0.521-0.102 0.717-0.303 c0.385-0.396 0.376-1.029-0.02-1.414L12.155 21.488h18.37c0.553 0 1-0.448 1-1S31.078 19.5 30.5 19.487z" class="style0"/></g></svg>