<svg xmlns="http://www.w3.org/2000/svg" xmlns:xlink="http://www.w3.org/1999/xlink" version="1.1" x="0px" y="0px" width="19.635px" height="19.637px" viewBox="0 0 19.635 19.637" enable-background="new 0 0 19.635 19.637" xml:space="preserve"><style>.style0{fill:	#608688;}</style><g><path d="M9.818 0C4.404 0 0 4.4 0 9.818s4.404 9.8 9.8 9.818c5.413 0 9.816-4.404 9.816-9.818 S15.231 0 9.8 0z M9.818 18.387c-4.725 0-8.568-3.844-8.568-8.568S5.094 1.2 9.8 1.25c4.724 0 8.6 3.8 8.6 8.6 S14.542 18.4 9.8 18.387z" class="style0"/><path d="M16.718 9.09c0.015-0.022 0.033-0.041 0.044-0.065c0.037-0.08 0.061-0.166 0.061-0.26 s-0.023-0.18-0.061-0.26c-0.012-0.025-0.03-0.043-0.045-0.066c-0.033-0.053-0.068-0.101-0.115-0.141 c-0.01-0.008-0.014-0.021-0.023-0.028l-4.912-3.773c-0.272-0.21-0.666-0.16-0.877 0.115c-0.21 0.274-0.158 0.7 0.1 0.9 l3.452 2.652l-4.072-0.002c-2.068-0.013-3.437-0.02-4.312 0.851c-0.606 0.603-0.876 1.556-0.876 3.09v2.316 c0 0.3 0.3 0.6 0.6 0.625s0.625-0.28 0.625-0.625v-2.316c0-1.159 0.162-1.859 0.508-2.204 c0.507-0.503 1.67-0.497 3.424-0.487l4.084 0.002l-3.457 2.658c-0.273 0.21-0.325 0.603-0.114 0.9 c0.123 0.2 0.3 0.2 0.5 0.244c0.134 0 0.268-0.042 0.381-0.13l4.912-3.777c0.01-0.007 0.014-0.02 0.023-0.028 C16.648 9.2 16.7 9.1 16.7 9.09z" class="style0"/></g></svg>