<svg xmlns="http://www.w3.org/2000/svg" xmlns:xlink="http://www.w3.org/1999/xlink" version="1.1" x="0px" y="0px" width="18.756px" height="18.754px" viewBox="0 0 18.756 18.754" enable-background="new 0 0 18.756 18.754" xml:space="preserve"><style>.style0{fill:	#618688;}</style><g><path d="M9.377 0C4.207 0 0 4.2 0 9.375c0 5.2 4.2 9.4 9.4 9.379c5.171 0 9.378-4.207 9.378-9.379 C18.756 4.2 14.5 0 9.4 0H9.377z M9.377 17.504c-4.481 0-8.127-3.646-8.127-8.129c0-4.48 3.646-8.125 8.127-8.125 c4.481 0 8.1 3.6 8.1 8.125C17.506 13.9 13.9 17.5 9.4 17.504H9.377z" class="style0"/><path d="M14.157 4.597c-0.244-0.244-0.641-0.244-0.885 0L9.377 8.493L5.481 4.597c-0.244-0.244-0.64-0.244-0.884 0 c-0.244 0.244-0.244 0.6 0 0.884l3.896 3.896l-3.896 3.896c-0.244 0.244-0.244 0.6 0 0.885c0.122 0.1 0.3 0.2 0.4 0.2 s0.32-0.061 0.442-0.183l3.896-3.896l3.896 3.896c0.121 0.1 0.3 0.2 0.4 0.183c0.101-0.017 0.32-0.061 0.442-0.183 c0.242-0.243 0.242-0.641 0-0.885l-3.896-3.896l3.896-3.896C14.399 5.2 14.4 4.8 14.2 4.597H14.157z" class="style0"/></g></svg>