<svg xmlns="http://www.w3.org/2000/svg" xmlns:xlink="http://www.w3.org/1999/xlink" version="1.1" x="0px" y="0px" width="19.355px" height="19.355px" viewBox="0 0 19.355 19.355" enable-background="new 0 0 19.355 19.355" xml:space="preserve"><style>.style0{fill:	#F9F7F7;}</style><g><path d="M12.221 14.784c0.297 0.2 0.7 0.1 0.857-0.218c0.176-0.31 0.1-0.709-0.2-0.857l-6.784-4l6.784-4.03 c0.297-0.177 0.396-0.562 0.218-0.856c-0.116-0.199-0.3-0.3-0.5-0.306c-0.108 0-0.219 0.027-0.318 0.088L4.591 9.2 C4.402 9.3 4.3 9.5 4.3 9.709c0 0.2 0.1 0.4 0.3 0.538L12.221 14.784z" class="style0"/><path d="M9.701 19.357c5.337 0 9.678-4.3 9.678-9.678c0-5.301-4.3-9.7-9.7-9.68C4.342 0 0 4.3 0 9.7 c0.022 5.4 4.4 9.7 9.7 9.678H9.701z M9.701 1.251c4.646 0 8.4 3.8 8.4 8.43c0 4.646-3.781 8.428-8.428 8.4 c-4.647 0-8.4-3.8-8.4-8.428c-0.028-4.623 3.778-8.424 8.378-8.43H9.701z" class="style0"/></g></svg>