<svg xmlns="http://www.w3.org/2000/svg" xmlns:xlink="http://www.w3.org/1999/xlink" version="1.1" x="0px" y="0px" width="17.021px" height="17.019px" viewBox="0 0 17.021 17.019" enable-background="new 0 0 17.021 17.019" xml:space="preserve"><style>.style0{fill:	#F9F8F7;}.style1{fill:	#787273;}.style2{fill:	#608688;}</style><g><path d="M8.511 16.519c-4.417 0-8.011-3.593-8.011-8.009S4.094 0.5 8.5 0.5s8.011 3.6 8 8 S12.928 16.5 8.5 16.519z" class="style0"/><path d="M8.511 1c4.142 0 7.5 3.4 7.5 7.51c0 4.14-3.369 7.509-7.511 7.509S1 12.7 1 8.5 C1 4.4 4.4 1 8.5 1 M8.511 0C3.811 0 0 3.8 0 8.51c0 4.7 3.8 8.5 8.5 8.509s8.511-3.811 8.511-8.509 C17.021 3.8 13.2 0 8.5 0L8.511 0z" class="style1"/></g><circle cx="8.5" cy="8.5" r="5.1" class="style2"/></svg>