<svg xmlns="http://www.w3.org/2000/svg" xmlns:xlink="http://www.w3.org/1999/xlink" version="1.1" x="0px" y="0px" width="16.508px" height="16.507px" viewBox="0 0 16.508 16.507" enable-background="new 0 0 16.508 16.507" xml:space="preserve"><style>.style0{fill:	#F9F7F7;}</style><g><path d="M8.254 0C3.703 0 0 3.7 0 8.253c0 4.6 3.7 8.3 8.3 8.254c4.552 0 8.255-3.703 8.255-8.254 C16.555 3.7 12.8 0 8.3 0H8.254z M8.254 15.257c-3.862 0-7.004-3.143-7.004-7.004c0-3.861 3.142-7.003 7.004-7.003 c3.862 0 7 3.1 7 7.003C15.258 12.1 12.1 15.3 8.3 15.257H8.254z" class="style0"/><path d="M8.254 2.956c-2.921 0-5.297 2.376-5.297 5.298c0 2.9 2.4 5.3 5.3 5.3 c2.925-0.002 5.298-2.377 5.298-5.298c0-2.921-2.38-5.254-5.255-5.298H8.254z" class="style0"/></g></svg>