<svg xmlns="http://www.w3.org/2000/svg" xmlns:xlink="http://www.w3.org/1999/xlink" version="1.1" x="0px" y="0px" width="24.736px" height="25.21px" viewBox="0 0 24.736 25.21" enable-background="new 0 0 24.736 25.21" xml:space="preserve"><style>.style0{fill:	#EB632E;}</style><g><path d="M20.111 0H4.625C2.075 0 0 2.1 0 4.625v13.128v2.832v0.584c0 2.2 2.1 4 4.6 4.041h15.486 c2.55 0 4.625-1.812 4.625-4.041v-0.584v-2.832V4.625C24.736 2.1 22.7 0 20.1 0z M1.25 4.6 c0-1.861 1.514-3.375 3.375-3.375h15.486c1.861 0 3.4 1.5 3.4 3.375v13.128H1.25V4.625z" class="style0"/><path d="M12.767 4.035c-0.028-0.022-0.061-0.034-0.092-0.051c-0.025-0.014-0.047-0.03-0.074-0.041 c-0.145-0.056-0.304-0.057-0.449 0c-0.026 0.01-0.047 0.026-0.072 0.04c-0.031 0.017-0.064 0.028-0.093 0.051L6.304 8.6 C6.034 8.8 6 9.2 6.2 9.449c0.215 0.3 0.6 0.3 0.9 0.099l4.669-3.726v8.544c0 0.3 0.3 0.6 0.6 0.6 s0.625-0.28 0.625-0.625V5.822l4.663 3.725c0.114 0.1 0.3 0.1 0.4 0.137c0.183 0 0.365-0.081 0.488-0.235 c0.216-0.27 0.172-0.663-0.099-0.878L12.767 4.035z" class="style0"/></g></svg>