<svg xmlns="http://www.w3.org/2000/svg" xmlns:xlink="http://www.w3.org/1999/xlink" version="1.1" x="0px" y="0px" width="63.74px" height="27.077px" viewBox="0 0 63.74 27.077" enable-background="new 0 0 63.74 27.077" xml:space="preserve"><style>.style0{opacity:	0.46;}.style1{opacity:	0;}</style><g><polygon points="6.5,15.5 6.4,15.5 2.8,9 0,9 0,20 2,20 2,12.6 2,12.6 6.3,20 8.5,20 8.5,9 6.5,9" class="style0"/><path d="M17.032 8.873c-3.249 0-4.706 2.721-4.706 5.635c0 1.4 0.4 2.8 1.2 3.9 c0.864 1.2 2.1 1.7 3.6 1.729c1.489 0 2.785-0.608 3.634-1.857c0.704-1.04 1.041-2.561 1.041-3.809 c0-1.329-0.4-2.881-1.185-3.954C19.642 9.4 18.5 8.9 17 8.873z M18.681 16.828c-0.288 0.816-0.769 1.248-1.649 1.2 c-1.809 0-2.017-2.192-2.017-3.568c0-0.688 0.096-1.633 0.352-2.289c0.304-0.801 0.784-1.249 1.665-1.249 c0.801 0 1.3 0.3 1.6 1.072c0.32 0.7 0.4 1.7 0.4 2.481C19.017 15.2 18.9 16.2 18.7 16.828z" class="style0"/><polygon points="24.6,11.2 27.4,11.2 27.4,20 30,20 30,11.2 32.7,11.2 32.7,9 24.6,9" class="style0"/><rect x="36.2" y="9" width="2.6" height="11" class="style0"/><path d="M47.507 10.938c1.408 0 1.8 1.1 1.8 2.353l2.689-0.176c-0.288-2.642-1.697-4.242-4.449-4.242 c-3.298 0-4.931 2.609-4.931 5.65c0 3 1.6 5.7 4.9 5.65c2.528 0 4.258-1.488 4.529-4.002l-2.497-0.16 c-0.144 1.057-0.704 2.064-1.905 2.064c-1.936 0-2.112-1.936-2.112-3.44C45.522 13.3 45.7 10.9 47.5 10.938z" class="style0"/><polygon points="63.7,11.2 63.7,9 55.9,9 55.9,20 63.7,20 63.7,17.9 58.5,17.9 58.5,15.5 62.6,15.5 62.6,13.4 58.5,13.4 58.5,11.2" class="style0"/><path d="M27.355 17.82c-1.925-3.335-5.074-8.791-7-12.125L18.511 2.5c-1.925-3.334-5.075-3.334-7 0L9.666 5.7 c-1.925 3.334-5.075 8.791-7 12.125l-1.844 3.194c-1.925 3.334-0.35 6.1 3.5 6.062h3.688c3.85 0 10.2 0 14 0h3.69 c3.85 0 5.425-2.728 3.5-6.062L27.355 17.82z M15.01 23.26c-1.095 0-1.981-0.888-1.981-1.981c0-1.096 0.887-1.982 1.981-1.982 s1.981 0.9 2 1.982C16.991 22.4 16.1 23.3 15 23.26z M16.212 16.733c0 0.664-0.537 1.203-1.201 1.2 s-1.204-0.539-1.204-1.203l-0.854-7.518c0-1.136 0.922-2.057 2.058-2.057s2.056 0.9 2.1 2.057L16.212 16.733z" class="style1"/></g></svg>