<svg xmlns="http://www.w3.org/2000/svg" xmlns:xlink="http://www.w3.org/1999/xlink" version="1.1" x="0px" y="0px" width="55.509px" height="27.077px" viewBox="0 0 55.509 27.077" enable-background="new 0 0 55.509 27.077" xml:space="preserve"><style>.style0{opacity:	0.46;}</style><g><path d="M3.521 9.033L0 20.014h2.257l0.688-2.257h3.554l0.672 2.257H9.94L6.499 9.033H3.521z M3.569 15.7 l1.168-3.858l1.168 3.858H3.569z" class="style0"/><polygon points="15.9,9 13.3,9 13.3,20 20.3,20 20.3,17.8 15.9,17.8" class="style0"/><polygon points="23.6,20 31.5,20 31.5,17.9 26.2,17.9 26.2,15.5 30.4,15.5 30.4,13.4 26.2,13.4 26.2,11.2 31.5,11.2 31.5,9 23.6,9" class="style0"/><path d="M44.206 12.331c0-1.072-0.496-2.145-1.393-2.737c-0.848-0.544-1.84-0.56-2.816-0.56h-4.626v10.98h2.562 v-4.338h1.872l1.681 4.338h2.85l-2.033-4.85C43.486 14.7 44.2 13.6 44.2 12.331z M40.909 13.6 c-0.465 0.272-1.041 0.225-1.568 0.225h-1.408v-2.801h1.344c0.48 0 1.217-0.064 1.6 0.208c0.369 0.2 0.6 0.7 0.6 1.1 C41.55 12.8 41.3 13.3 40.9 13.562z" class="style0"/><polygon points="47.4,9 47.4,11.2 50.2,11.2 50.2,20 52.8,20 52.8,11.2 55.5,11.2 55.5,9" class="style0"/></g></svg>