<svg xmlns="http://www.w3.org/2000/svg" xmlns:xlink="http://www.w3.org/1999/xlink" version="1.1" x="0px" y="0px" width="101.862px" height="27.077px" viewBox="0 0 101.862 27.077" enable-background="new 0 0 101.862 27.077" xml:space="preserve"><style>.style0{opacity:	0.46;}</style><g><polygon points="43,20 50.8,20 50.8,17.9 45.5,17.9 45.5,15.5 49.7,15.5 49.7,13.4 45.5,13.4 45.5,11.2 50.8,11.2 50.8,9 43,9" class="style0"/><path d="M63.526 12.331c0-1.072-0.496-2.145-1.393-2.737c-0.848-0.544-1.841-0.56-2.817-0.56h-4.626v10.98h2.561 v-4.338h1.873l1.681 4.338h2.849l-2.033-4.85C62.806 14.7 63.5 13.6 63.5 12.331z M60.229 13.6 c-0.464 0.272-1.041 0.225-1.568 0.225h-1.409v-2.801h1.344c0.48 0 1.217-0.064 1.6 0.208c0.368 0.2 0.6 0.7 0.6 1.1 C60.869 12.8 60.6 13.3 60.2 13.562z" class="style0"/><path d="M76.278 12.331c0-1.072-0.496-2.145-1.393-2.737c-0.848-0.544-1.841-0.56-2.816-0.56h-4.626v10.98h2.561 v-4.338h1.872l1.682 4.338h2.849l-2.032-4.85C75.558 14.7 76.3 13.6 76.3 12.331z M72.981 13.6 c-0.465 0.272-1.041 0.225-1.568 0.225h-1.409v-2.801h1.345c0.48 0 1.217-0.064 1.6 0.208c0.368 0.2 0.6 0.7 0.6 1.1 C73.621 12.8 73.4 13.3 73 13.562z" class="style0"/><path d="M84.327 8.873c-3.25 0-4.706 2.721-4.706 5.635c0 1.4 0.4 2.8 1.2 3.9 c0.864 1.2 2.1 1.7 3.6 1.729s2.785-0.608 3.633-1.857c0.705-1.04 1.041-2.561 1.041-3.809c0-1.329-0.4-2.881-1.185-3.954 C86.937 9.4 85.8 8.9 84.3 8.873z M85.976 16.828c-0.288 0.816-0.769 1.248-1.648 1.248c-1.809 0-2.018-2.192-2.018-3.568 c0-0.688 0.097-1.633 0.353-2.289c0.304-0.801 0.784-1.249 1.665-1.249c0.801 0 1.3 0.3 1.6 1.1 c0.32 0.7 0.4 1.7 0.4 2.481C86.312 15.2 86.2 16.2 86 16.828z" class="style0"/><path d="M99.83 15.164c1.185-0.433 1.905-1.585 1.905-2.833c0-1.072-0.496-2.145-1.393-2.737 c-0.849-0.544-1.842-0.56-2.817-0.56h-4.626v10.98h2.561v-4.338h1.873l1.681 4.338h2.849L99.83 15.164z M98.438 13.6 c-0.464 0.272-1.04 0.225-1.568 0.225H95.46v-2.801h1.345c0.48 0 1.217-0.064 1.6 0.208c0.367 0.2 0.6 0.7 0.6 1.1 C99.077 12.8 98.9 13.3 98.4 13.562z" class="style0"/><path d="M27.355 17.82c-1.925-3.335-5.075-8.791-7-12.125L18.51 2.5c-1.925-3.334-5.075-3.334-7 0L9.665 5.7 c-1.925 3.334-5.075 8.791-7 12.125l-1.844 3.194c-1.925 3.334-0.35 6.1 3.5 6.062H8.01c3.85 0 10.2 0 14 0H25.7 c3.85 0 5.425-2.728 3.5-6.062L27.355 17.82z M15.009 23.26c-1.095 0-1.981-0.888-1.981-1.981c0-1.096 0.887-1.982 1.981-1.982 s1.981 0.9 2 1.982C16.991 22.4 16.1 23.3 15 23.26z M16.211 16.733c0 0.664-0.537 1.203-1.201 1.2 s-1.204-0.539-1.204-1.203l-0.854-7.518c0-1.136 0.922-2.057 2.058-2.057s2.056 0.9 2.1 2.057L16.211 16.733z" class="style0"/></g></svg>