<svg xmlns="http://www.w3.org/2000/svg" xmlns:xlink="http://www.w3.org/1999/xlink" version="1.1" x="0px" y="0px" width="82.971px" height="27.077px" viewBox="0 0 82.971 27.077" enable-background="new 0 0 82.971 27.077" xml:space="preserve"><style>.style0{opacity:	0.46;}</style><g><path d="M7.539 13.932c-0.768-0.513-1.969-0.736-2.865-0.929c-0.624-0.112-1.584-0.304-1.584-1.104 c0-0.849 0.833-1.024 1.521-1.024c0.977 0 1.6 0.4 1.9 1.296l2.177-0.72C8.003 9.5 6.4 8.9 4.5 8.9 c-1.009 0-1.953 0.224-2.753 0.896c-0.784 0.656-1.185 1.553-1.185 2.577c0 2.4 1.9 3 3.9 3.4 c0.672 0.1 1.9 0.3 1.9 1.232c0 0.912-0.976 1.184-1.712 1.184c-1.137 0-1.969-0.4-2.289-1.553L0 17.1 c0.497 2.1 2.4 3 4.4 3.041c1.104 0 2.305-0.208 3.185-0.896c0.849-0.656 1.361-1.681 1.361-2.753 C8.98 15.4 8.4 14.5 7.5 13.932z" class="style0"/><path d="M19.162 15.676c0 0.6 0 1.345-0.304 1.841c-0.32 0.433-1.072 0.593-1.584 0.6 c-0.625 0-1.312-0.16-1.649-0.736c-0.256-0.449-0.24-1.186-0.24-1.697V9.033h-2.785v6.643c0 1.3 0 2.6 1.1 3.6 c0.88 0.8 2.2 0.9 3.4 0.944c1.201 0 2.497-0.271 3.377-1.152c0.913-0.896 0.896-2.145 0.896-3.346V9.033h-2.209V15.676z" class="style0"/><path d="M29.946 10.938c1.408 0 1.8 1.1 1.8 2.353l2.688-0.176c-0.287-2.642-1.696-4.242-4.449-4.242 c-3.297 0-4.93 2.609-4.93 5.65c0 3 1.6 5.7 4.8 5.65c2.529 0 4.258-1.488 4.529-4.002l-2.496-0.16 c-0.145 1.057-0.705 2.064-1.905 2.064c-1.937 0-2.112-1.936-2.112-3.44C27.961 13.3 28.1 10.9 29.9 10.938z" class="style0"/><path d="M42.686 10.938c1.409 0 1.8 1.1 1.8 2.353l2.688-0.176c-0.288-2.642-1.696-4.242-4.45-4.242 c-3.297 0-4.93 2.609-4.93 5.65c0 3 1.6 5.7 4.8 5.65c2.529 0 4.258-1.488 4.53-4.002l-2.497-0.16 c-0.145 1.057-0.704 2.064-1.904 2.064c-1.938 0-2.113-1.936-2.113-3.44C40.702 13.3 40.9 10.9 42.7 10.938z" class="style0"/><polygon points="51.1,20 58.9,20 58.9,17.9 53.6,17.9 53.6,15.5 57.8,15.5 57.8,13.4 53.6,13.4 53.6,11.2 58.9,11.2 58.9,9 51.1,9" class="style0"/><path d="M69.435 13.932c-0.769-0.513-1.969-0.736-2.865-0.929c-0.624-0.112-1.585-0.304-1.585-1.104 c0-0.849 0.833-1.024 1.521-1.024c0.977 0 1.6 0.4 1.9 1.296l2.177-0.72c-0.673-1.905-2.241-2.577-4.161-2.577 c-1.01 0-1.953 0.224-2.754 0.896c-0.784 0.656-1.185 1.553-1.185 2.577c0 2.4 1.9 3 3.9 3.4 c0.672 0.1 1.9 0.3 1.9 1.232c0 0.912-0.976 1.184-1.712 1.184c-1.137 0-1.969-0.4-2.289-1.553l-2.369 0.5 c0.497 2.1 2.4 3 4.4 3.041c1.104 0 2.305-0.208 3.185-0.896c0.849-0.656 1.36-1.681 1.36-2.753 C70.875 15.4 70.3 14.5 69.4 13.932z" class="style0"/><path d="M81.53 13.932c-0.768-0.513-1.969-0.736-2.865-0.929c-0.624-0.112-1.584-0.304-1.584-1.104 c0-0.849 0.832-1.024 1.52-1.024c0.977 0 1.6 0.4 1.9 1.296l2.177-0.72c-0.672-1.905-2.241-2.577-4.162-2.577 c-1.008 0-1.953 0.224-2.753 0.896c-0.784 0.656-1.185 1.553-1.185 2.577c0 2.4 1.9 3 3.9 3.4 c0.672 0.1 1.9 0.3 1.9 1.232c0 0.912-0.977 1.184-1.713 1.184c-1.137 0-1.969-0.4-2.289-1.553l-2.369 0.5 c0.496 2.1 2.4 3 4.4 3.041c1.105 0 2.305-0.208 3.186-0.896c0.849-0.656 1.361-1.681 1.361-2.753 C82.971 15.4 82.4 14.5 81.5 13.932z" class="style0"/></g></svg>