<svg xmlns="http://www.w3.org/2000/svg" xmlns:xlink="http://www.w3.org/1999/xlink" version="1.1" x="0px" y="0px" width="83.416px" height="27.077px" viewBox="0 0 83.416 27.077" enable-background="new 0 0 83.416 27.077" xml:space="preserve"><style>.style0{opacity:	0.46;}</style><g class="style0"><path d="M11.46 20.014H8.931l-1.793-7.268H7.106l-1.729 7.268H2.881L0.047 9.033h2.625l1.681 7.395h0.032l1.777-7.395h2.369 l1.841 7.395h0.032l0.096-0.479l1.601-6.915h2.113L11.46 20.014z"/><path d="M26.067 20.014h-2.769l-0.672-2.257h-3.554l-0.688 2.257h-2.257l3.521-10.98h2.977L26.067 20.014z M22.034 15.7 l-1.168-3.858l-1.168 3.858H22.034z"/><path d="M32.062 20.014h-2.561V9.033h4.626c0.976 0 2 0 2.8 0.56c0.896 0.6 1.4 1.7 1.4 2.7 c0 1.249-0.721 2.401-1.905 2.833l2.032 4.85h-2.849l-1.681-4.338h-1.873V20.014z M32.062 13.787h1.409 c0.528 0 1.1 0 1.568-0.225c0.416-0.256 0.64-0.768 0.64-1.248c0-0.432-0.256-0.896-0.623-1.12 c-0.433-0.272-1.169-0.208-1.649-0.208h-1.345V13.787z"/><path d="M50.68 20.014h-2.192l-4.211-7.379h-0.063v7.379h-1.985V9.033h2.77l3.666 6.451h0.031V9.033h1.985V20.014z"/><path d="M57.63 20.014h-2.562V9.033h2.562V20.014z"/><path d="M70.464 20.014h-2.193l-4.21-7.379h-0.063v7.379h-1.985V9.033h2.77l3.665 6.451h0.032V9.033h1.985V20.014z"/><path d="M78.902 16.188v-2.049h4.514v5.875h-1.169l-0.367-1.265c-0.816 0.993-1.713 1.425-2.994 1.4 c-3.217 0-4.545-2.674-4.545-5.555c0-2.977 1.457-5.746 4.77-5.746c2.369 0 4 1.4 4.3 3.762l-2.433 0.3 c-0.112-1.104-0.705-2.033-1.938-2.033c-1.809 0-2.08 2.353-2.08 3.713c0 1.4 0.4 3.4 2.2 3.4 c1.119 0 1.889-0.784 1.824-1.905H78.902z"/></g></svg>