<svg xmlns="http://www.w3.org/2000/svg" xmlns:xlink="http://www.w3.org/1999/xlink" version="1.1" x="0px" y="0px" width="34.511px" height="34.516px" viewBox="0 0 34.511 34.516" enable-background="new 0 0 34.511 34.516" xml:space="preserve"><style>.style0{fill:	#A7B6B9;}.style1{fill:	#608688;}</style><path d="M17.253 0.625c9.188 0 16.6 7.4 16.6 16.633c0 9.187-7.445 16.633-16.633 16.6 c-9.184 0-16.629-7.446-16.629-16.633C0.625 8.1 8.1 0.6 17.3 0.625z" class="style0"/><g><path d="M0 17.258c0 9.5 7.7 17.3 17.3 17.258c9.516 0 17.258-7.742 17.258-17.258 C34.511 7.7 26.8 0 17.3 0C7.74 0 0 7.7 0 17.258z M1.25 17.258c0-8.827 7.18-16.008 16.004-16.008 c8.826 0 16 7.2 16 16.008S26.08 33.3 17.3 33.266C8.429 33.3 1.2 26.1 1.2 17.258z" class="style1"/><path d="M7.607 16.81l10.39-10.104c0.247-0.241 0.644-0.236 0.9 0.013c0.24 0.2 0.2 0.643-0.013 0.9 l-9.286 9.03h16.244c0.346 0 0.6 0.3 0.6 0.625s-0.279 0.625-0.625 0.625H9.582l9.287 9 c0.246 0.2 0.3 0.6 0 0.884c-0.123 0.126-0.285 0.189-0.448 0.189c-0.157 0-0.314-0.059-0.436-0.177L7.607 17.7 c-0.001-0.001-0.001-0.002-0.002-0.003c-0.115-0.113-0.188-0.271-0.188-0.445s0.072-0.331 0.187-0.444 C7.605 16.8 7.6 16.8 7.6 16.81z" class="style1"/></g></svg>