<svg xmlns="http://www.w3.org/2000/svg" xmlns:xlink="http://www.w3.org/1999/xlink" version="1.1" x="0px" y="0px" width="34.511px" height="34.516px" viewBox="0 0 34.511 34.516" enable-background="new 0 0 34.511 34.516" xml:space="preserve"><style>.style0{fill:	#A7B6B9;}.style1{fill:	#608688;}</style><path d="M17.257 0.625c-9.187 0-16.632 7.444-16.632 16.633c0 9.2 7.4 16.6 16.6 16.6 c9.184 0 16.629-7.446 16.629-16.633C33.886 8.1 26.4 0.6 17.3 0.625z" class="style0"/><g><path d="M17.257 0C7.742 0 0 7.7 0 17.258c0 9.5 7.7 17.3 17.3 17.3 c9.514 0 17.254-7.742 17.254-17.258C34.511 7.7 26.8 0 17.3 0z M17.257 33.266c-8.827 0-16.007-7.181-16.007-16.008 S8.431 1.2 17.3 1.25c8.824 0 16 7.2 16 16.008S26.082 33.3 17.3 33.266z" class="style1"/><path d="M26.904 16.81L16.514 6.707c-0.247-0.241-0.644-0.236-0.884 0.013c-0.24 0.247-0.235 0.6 0 0.9 l9.286 9.03H8.685c-0.345 0-0.625 0.28-0.625 0.625s0.28 0.6 0.6 0.625h16.245l-9.287 9 c-0.247 0.241-0.252 0.637-0.012 0.884c0.123 0.1 0.3 0.2 0.4 0.189c0.157 0 0.314-0.059 0.436-0.177l10.389-10.112 c0.001-0.001 0.001-0.002 0.002-0.003c0.115-0.113 0.188-0.271 0.188-0.445s-0.072-0.331-0.187-0.444 C26.906 16.8 26.9 16.8 26.9 16.81z" class="style1"/></g></svg>