<?xml version="1.0" encoding="utf-8"?>
<!-- Generator: Adobe Illustrator 20.0.0, SVG Export Plug-In . SVG Version: 6.00 Build 0)  -->
<!DOCTYPE svg PUBLIC "-//W3C//DTD SVG 1.1//EN" "http://www.w3.org/Graphics/SVG/1.1/DTD/svg11.dtd" [
	<!ENTITY st0 "fill:#3BBBB8;">
]>
<svg version="1.1" id="Layer_1" xmlns="http://www.w3.org/2000/svg" xmlns:xlink="http://www.w3.org/1999/xlink" x="0px" y="0px"
	 width="194.2547px" height="25.93652px" viewBox="0 0 194.2547 25.93652" style="enable-background:new 0 0 194.2547 25.93652;"
	 xml:space="preserve">
<path style="&st0;" d="M62.91788,22.75107V9.21866c0.07355-1.66016,0.68274-2.06006,0.68274-2.06006
	c-0.3764,0.26416-6.79913,4.0238-6.79913,4.0238c1.33313-0.33209,1.20441,1.32629,1.20441,1.32629
	c0.03821,0.37616,0.03821,7.74798,0.03821,7.74798c0,2.40302-2.23969,2.79688-2.23969,2.79688
	c-3.59991,0.42731-3.6593-2.15436-3.6593-2.15436c-0.12683-0.51959,0-4.76373,0-4.76373
	c-0.11212-2.1159,0.6806-2.8714,0.6806-2.8714l-6.18109,3.58179c1.05695-0.37738,0.9599,1.06592,0.9599,1.06592
	c0,1.59039,0.1875,4.80084,0.1875,4.80084c0.3017,2.88824,4.09766,2.78015,4.09766,2.78015
	c4.42059,0,6.11621-2.39978,6.11621-2.39978l0.008,1.96259c0.41632,0.03839,6.1358-0.01666,6.1358-0.01666
	C62.8726,24.80417,62.91788,22.75107,62.91788,22.75107z"/>
<path style="&st0;" d="M98.7219,23.08896c0-2.25867,0.02631-10.52728-0.0993-12.23865
	C98.3159,6.6506,93.1525,7.48288,93.1525,7.48288c-4.5365,0.71893-5.70947,3.51593-5.70947,3.51593
	c0-0.45392-0.112-10.99884-0.112-10.99884l-5.91193,3.41461c1.24847-0.47528,1.11298,2.13892,1.11298,2.13892
	c0,0.79657,0.11292,17.31049,0.11292,17.31049c-0.00592,1.68872-1.22589,2.22998-1.22589,2.22998c3.57489,0,3.46088,0,7.31567,0
	c-1.33105-0.71906-1.21509-2.26929-1.21509-2.26929c0-0.95099-0.1051-7.56341,0.09131-9.2168
	c0.38208-3.19452,3.31152-3.44208,3.31152-3.44208c2.68689,0,2.72028,2.64447,2.72028,2.64447
	c0.18909,0.75342,0.03943,10.24329,0.03943,10.24329c-0.08252,1.5885-1.13672,2.04041-1.13672,2.04041
	c0.30371,0,7.36096-0.0069,7.36096-0.0069C98.74339,24.75497,98.7219,23.08896,98.7219,23.08896z"/>
<path style="&st0;" d="M12.2042,11.41519c4.79401-2.82629,5.21454-5.35602,5.21454-5.97278
	C17.5366,1.15121,13.5452,0.6503,13.5452,0.6503C12.49882,0.31436,0.00004,0.52841,0.00004,0.52841
	c1.2301,0.68085,1.2066,1.9668,1.2066,1.9668C1.2819,3.02286,1.43253,22.7883,1.43253,22.7883
	c-0.23883,1.93036-1.39423,2.30566-1.39423,2.30566c0.34003,0,13.5271-0.07556,13.5271-0.07556
	c7.10693-0.33704,6.159-6.99072,6.159-6.99072C18.96702,12.25821,12.2042,11.41519,12.2042,11.41519z M10.84373,23.76968
	c0,0-4.00031,0.65833-4.15961-1.54822C6.53092,20.01687,6.65281,10.6824,6.65281,10.6824L6.5731,3.2496
	C6.53092,1.62277,8.6951,1.6954,8.6951,1.6954c4.50909,0,4.07349,4.54059,4.07349,4.54059c0,2.47772-3.78357,5.5271-3.78357,5.5271
	l-0.03101,0.0127l0.02698,0.00677c0.3548,0.08453,5.17725,1.19855,5.52789,7.26495
	C14.50889,19.04751,15.04832,23.26077,10.84373,23.76968z"/>
<path style="&st0;" d="M44.72898,11.68826c0.63861-0.69348,2.42059-1.56189,2.92059,0.0639
	c0.10712,0.36639,0.06586,0.86151-0.10315,1.29773c-0.2818,0.75146-0.61194,1.08069-0.61194,1.08069s5.39209-2.94818,5.3952-3.05518
	c0.10803-4.42481-4.40308-3.49933-4.40308-3.49933c-3.55469,0.64642-4.2262,4.1496-4.2262,4.1496L43.62669,7.9985l-6.33136,3.51691
	c1.3537-0.33582,1.27307,1.77429,1.27307,1.77429c0,0.37628-0.0766,8.39227-0.15717,9.8139
	c-0.07953,1.42657-1.11591,1.94305-1.11591,1.94305c0.04028,0.07672,7.59668,0.0473,7.59668,0.0473
	c-1.09131-0.32318-1.11401-2.065-1.11401-2.065c0.03943-0.3811,0-8.20386,0-8.20386
	C43.77799,12.3132,44.72898,11.68826,44.72898,11.68826z"/>
<path style="&st0;" d="M35.63902,22.23819c0.08246-1.25452,0.25159-9.53021,0.25159-9.53021
	c-0.71332-5.68597-6.64942-5.43439-6.64942-5.43439c-3.46729,0.04132-6.52246,2.30072-6.52246,2.30072l-0.12183,5.13977
	c2.2132-4.1377,4.59741-5.6427,6.18512-5.51807c2.57581,0.19946,2.42548,2.84198,1.25348,3.92859
	c-1.16998,1.08838-2.21527,1.21417-5.76746,2.75946c-3.55432,1.54523-3.88745,3.84613-3.88745,4.47284
	c0,4.4798,4.72345,4.89038,4.72345,4.89038c2.9657,0.29272,4.09937-0.50299,4.09937-0.50299
	c0-0.26031-0.00201-2.36761-0.00201-2.36761c-0.57947,0.46271-0.8891,0.69653-1.46265,0.69653
	c-2.37946,0-2.13873-2.42944-2.00714-3.09161c0.44708-2.29291,5.05841-4.89233,5.05841-4.89233
	c0.16699,0.83813-0.25153,9.94965-0.25153,9.94965h6.64789C35.51328,24.58017,35.63902,22.23819,35.63902,22.23819z"/>
<path style="&st0;" d="M74.97849,23.80997c0,0-4.88531,0.6651-5.92432-6.92676c-0.9494-6.92779,3.31415-7.75885,4.38202-7.75885
	c0.5954,0,4.08868,0.29462,3.85089,5.5072l3.3175-3.84808c0,0-2.42938-3.79102-8.41022-3.19946
	c-6.82257,0.67578-8.4101,6.33539-8.3512,8.34918c0.04034,1.36658-0.29858,8.17438,7.58014,9.83472
	c0,0,4.14661,1.00586,8.9436-1.89606l1.12378-4.6781C81.4907,19.19375,78.53092,23.7521,74.97849,23.80997z"/>
<path style="&st0;" d="M101.40171,16.47641c0,4.81866,4.17621,8.81207,8.97021,8.81207c2.12085,0,4.10925-0.79572,5.72815-2.14551
	v-1.50708c-1.27795,1.5531-3.78986,2.62701-5.77448,2.62701c-2.0329,0-4.08569-1.00403-5.52283-2.37543
	c-1.43927-1.41467-2.30676-3.3078-2.30676-5.31757c0-4.22333,3.5376-7.92102,7.82959-7.92102
	c2.12311,0,4.45331,1.09528,5.77448,2.71527v-1.505c-1.5296-1.41467-3.62878-2.23596-5.70557-2.23596
	C105.51011,7.6232,101.40171,11.59396,101.40171,16.47641z"/>
<path style="&st0;" d="M126.50852,7.6232c-4.86084,0-8.92401,3.99237-8.92401,8.8327c0,4.83917,4.08478,8.83258,8.92401,8.83258
	c4.8402,0,8.9259-3.99341,8.9259-8.83258C135.43442,11.61557,131.34872,7.6232,126.50852,7.6232z M126.50852,24.26291
	c-4.29114,0-7.82861-3.56012-7.82861-7.80701c0-4.24493,3.53748-7.80701,7.82861-7.80701c4.26946,0,7.83056,3.56207,7.83056,7.80701
	C134.33908,20.67819,130.77798,24.26291,126.50852,24.26291z"/>
<polygon style="&st0;" points="139.65579,7.85019 138.56137,7.85019 138.56137,25.06051 144.03909,25.06051 144.03909,24.0339 
	139.65579,24.0339 "/>
<polygon style="&st0;" points="148.03348,7.85019 146.93759,7.85019 146.93759,25.06051 152.4169,25.06051 152.4169,24.0339 
	148.03348,24.0339 "/>
<polygon style="&st0;" points="155.31387,25.06051 163.5325,25.06051 163.5325,24.0339 156.41232,24.0339 156.41232,16.15817 
	163.3508,16.15817 163.3508,15.13168 156.41232,15.13168 156.41232,8.87772 163.5325,8.87772 163.5325,7.85019 155.31387,7.85019 
	"/>
<path style="&st0;" d="M175.65317,17.80276h6.16455c-0.0708,1.87134-0.61591,3.30963-2.10242,4.565
	c-1.41364,1.14075-3.2182,1.89514-5.06598,1.89514c-4.29211,0-7.80701-3.56012-7.80701-7.80701
	c0-4.13092,3.6062-7.80701,7.80701-7.80701c2.78406,0,5.11224,1.41656,6.64087,3.69769l0.89203-0.70538
	c-1.80383-2.46692-4.33643-4.01801-7.46625-4.01801c-4.92847,0-8.97009,3.97076-8.97009,8.90051
	c0,4.74878,4.06323,8.76477,8.83459,8.76477c2.42059,0,4.88391-1.00311,6.52789-2.78308
	c1.52972-1.6673,1.85083-3.56122,1.80463-5.73029h-7.25983V17.80276z"/>
<polygon style="&st0;" points="194.25467,8.87772 194.25467,7.85019 186.03989,7.85019 186.03989,25.06051 194.25467,25.06051 
	194.25467,24.0339 187.1348,24.0339 187.1348,16.15817 194.07388,16.15817 194.07388,15.13168 187.1348,15.13168 187.1348,8.87772 
	"/>
</svg>
