<?xml version="1.0" encoding="utf-8"?>
<!-- Generator: Adobe Illustrator 18.1.0, SVG Export Plug-In . SVG Version: 6.00 Build 0)  -->
<svg version="1.1" id="Layer_2" xmlns="http://www.w3.org/2000/svg" xmlns:xlink="http://www.w3.org/1999/xlink" x="0px" y="0px"
	 viewBox="0 0 465.3 207.5" enable-background="new 0 0 465.3 207.5" xml:space="preserve">
<path fill="#FFFFFF" d="M66.8,147.9c-5.7-6.9-15.6-11.6-24.7-11.6c-18.4,0-33.5,15.8-33.5,33.9c0,8.6,3.7,16.7,9.9,22.8
	c6.2,5.9,14.9,10.2,23.6,10.2c8.5,0,19.2-4.6,24.7-11.2v6.4c-6.9,5.8-15.4,9.2-24.5,9.2c-20.5,0-38.4-17.1-38.4-37.7
	c0-20.9,17.6-37.9,38.5-37.9c8.9,0,17.9,3.5,24.4,9.6V147.9z"/>
<path fill="#FFFFFF" d="M124,136.3c18.3,0,33.5,15.2,33.5,33.4c0,18.1-15.2,33.4-33.5,33.4c-18.4,0-33.5-15.2-33.5-33.4
	C90.5,151.6,105.7,136.3,124,136.3z M124,131.9c-20.8,0-38.2,17.1-38.2,37.8c0,20.7,17.5,37.8,38.2,37.8c20.7,0,38.2-17.1,38.2-37.8
	C162.2,149,144.7,131.9,124,131.9z"/>
<path fill="#FFFFFF" d="M188.1,202.2h18.8v4.4h-23.4v-73.6h4.7V202.2z"/>
<path fill="#FFFFFF" d="M233.2,202.2H252v4.4h-23.4v-73.6h4.7V202.2z"/>
<path fill="#FFFFFF" d="M277.3,137.3v26.8H307v4.4h-29.7v33.7h30.5v4.4h-35.2v-73.6h35.2v4.4H277.3z"/>
<path fill="#FFFFFF" d="M401,171.1c0.2,9.3-1.2,17.4-7.7,24.5c-7,7.6-17.6,11.9-27.9,11.9c-20.4,0-37.8-17.2-37.8-37.5
	c0-21.1,17.3-38.1,38.4-38.1c13.4,0,24.2,6.6,31.9,17.2l-3.8,3c-6.5-9.8-16.5-15.8-28.4-15.8c-18,0-33.4,15.7-33.4,33.4
	c0,18.2,15,33.4,33.4,33.4c7.9,0,15.6-3.2,21.7-8.1c6.4-5.4,8.7-11.5,9-19.5h-26.4v-4.4H401z"/>
<path fill="#FFFFFF" d="M429.3,137.3v26.8H459v4.4h-29.7v33.7h30.5v4.4h-35.2v-73.6h35.2v4.4H429.3z"/>
<g>
	<path fill="#FFFFFF" d="M217.2,78.5L246,61.8c0,0-3.7,3.5-3.2,13.4c0,0-0.6,19.8,0,22.2c0,0,0.3,12,17,10c0,0,10.4-1.8,10.4-13
		c0,0,0-34.3-0.2-36.1c0,0,0.6-7.7-5.6-6.2c0,0,29.9-17.5,31.7-18.7c0,0-2.8,1.9-3.2,9.6v63c0,0-0.2,9.6,5.7,10.7
		c0,0-26.6,0.3-28.6,0.1l-0.1-9.2c0,0-7.9,11.2-28.5,11.2c0,0-17.7,0.5-19.1-13c0,0-0.9-15-0.9-22.3
		C221.7,83.4,222.2,76.7,217.2,78.5z"/>
	<path fill="#FFFFFF" d="M379.2,15.9L406.7,0c0,0,0.5,49.1,0.5,51.2c0,0,5.5-13,26.6-16.4c0,0,24.1-3.9,25.5,15.7
		c0.6,8,0.5,46.5,0.5,57c0,0,0.1,7.8,5.5,9.3c0,0-32.9,0-34.3,0c0,0,4.9-2.1,5.3-9.5c0,0,0.7-44.2-0.2-47.7c0,0-0.2-12.3-12.7-12.3
		c0,0-13.6,1.2-15.4,16c-0.9,7.7-0.4,38.5-0.4,42.9c0,0-0.5,7.2,5.6,10.6c-18,0-17.4,0-34.1,0c0,0,5.7-2.5,5.7-10.4
		c0,0-0.5-76.9-0.5-80.6C384.4,25.9,385,13.7,379.2,15.9z"/>
	<path fill="#FFFFFF" d="M91.9,84c-3.5-26.9-35-30.8-35-30.8C79.1,40,81.1,28.2,81.1,25.3c0.5-20-18-22.3-18-22.3
		C58.2,1.5,0,2.5,0,2.5c5.7,3.2,5.6,9.2,5.6,9.2c0.4,2.5,1.1,94.5,1.1,94.5c-1.1,9-6.5,10.7-6.5,10.7c1.6,0,63-0.3,63-0.3
		C96.3,115,91.9,84,91.9,84z M50.5,110.7c0,0-18.6,3-19.4-7.2C30.4,93.2,31,49.7,31,49.7l-0.4-34.6c-0.2-7.6,9.9-7.2,9.9-7.2
		c21,0,19,21.1,19,21.1c0,11.5-17.6,25.7-17.6,25.7l-0.1,0.1l0.1,0c1.6,0.4,24.1,5.6,25.7,33.8C67.6,88.7,70.1,108.3,50.5,110.7z"/>
	<path fill="#FFFFFF" d="M173.7,53.6l29.5-16.4l0.4,17.4c0,0,3.1-16.3,19.7-19.3c0,0,21-4.3,20.5,16.3c0,0.5-25.1,14.2-25.1,14.2
		s1.5-1.6,2.9-5c0.8-2,1-4.3,0.5-6.1c-2.3-7.6-10.6-3.5-13.6-0.3c0,0-4.4,2.9-4.4,14.6c0,0,0.2,36.4,0,38.2c0,0,0.1,8.1,5.2,9.6
		c0,0-35.2,0.1-35.4-0.2c0,0,4.8-2.4,5.2-9c0.4-6.6,0.7-44,0.7-45.7C179.6,61.9,180,52.1,173.7,53.6z"/>
	<path fill="#FFFFFF" d="M105.2,68.5l0.6-23.9c0,0,14.2-10.5,30.4-10.7c0,0,27.6-1.2,31,25.3c0,0-0.8,38.5-1.2,44.4
		c0,0-0.6,10.9,7.2,13h-31c0,0,1.9-42.4,1.2-46.3c0,0-21.5,12.1-23.5,22.8c-0.6,3.1-1.7,14.4,9.3,14.4c2.7,0,4.1-1.1,6.8-3.2
		c0,0,0,9.8,0,11c0,0-5.3,3.7-19.1,2.3c0,0-22-1.9-22-22.8c0-2.9,1.6-13.6,18.1-20.8c16.5-7.2,21.4-7.8,26.9-12.8
		c5.4-5.1,6.2-17.4-5.8-18.3C126.6,42.2,115.5,49.2,105.2,68.5z"/>
	<path fill="#FFFFFF" d="M359.9,68.1l15.4-17.9c0,0-11.3-17.7-39.2-14.9c-31.8,3.1-39.2,29.5-38.9,38.9c0.2,6.4-1.4,38.1,35.3,45.8
		c0,0,19.3,4.7,41.7-8.8l5.2-21.8c0,0-13.8,21.2-30.3,21.5c0,0-22.7,3.1-27.6-32.3C317.2,46.3,337,42.5,342,42.5
		C344.8,42.5,361.1,43.9,359.9,68.1z"/>
</g>
</svg>
