<svg xmlns="http://www.w3.org/2000/svg" xmlns:xlink="http://www.w3.org/1999/xlink" version="1.1" x="0px" y="0px" width="15.492px" height="15.492px" viewBox="0 0 15.492 15.492" enable-background="new 0 0 15.492 15.492" xml:space="preserve"><style>.style0{fill:	#7E7879;}</style><g><path d="M11.492 1.25c1.517 0 2.8 1.2 2.8 2.75v7.492c0 1.517-1.233 2.75-2.75 2.75H4 c-1.517 0-2.75-1.233-2.75-2.75V4c0-1.517 1.233-2.75 2.75-2.75H11.492 M11.492 0H4C1.8 0 0 1.8 0 4v7.492c0 2.2 1.8 4 4 4h7.492 c2.2 0 4-1.8 4-4V4C15.492 1.8 13.7 0 11.5 0L11.492 0z" class="style0"/></g></svg>