<svg xmlns="http://www.w3.org/2000/svg" xmlns:xlink="http://www.w3.org/1999/xlink" version="1.1" x="0px" y="0px" width="18.097px" height="18.096px" viewBox="0 0 18.097 18.096" enable-background="new 0 0 18.097 18.096" xml:space="preserve"><style>.style0{fill:	#F9F8F7;}.style1{fill:	#787273;}</style><g><path d="M4 17.596c-1.93 0-3.5-1.57-3.5-3.5V4c0-1.93 1.57-3.5 3.5-3.5h10.097c1.93 0 3.5 1.6 3.5 3.5v10.096 c0 1.93-1.57 3.5-3.5 3.5H4z" class="style0"/><path d="M14.097 1c1.654 0 3 1.3 3 3v10.096c0 1.654-1.346 3-3 3H4c-1.654 0-3-1.346-3-3V4c0-1.654 1.346-3 3-3 H14.097 M14.097 0H4C1.8 0 0 1.8 0 4v10.096c0 2.2 1.8 4 4 4h10.097c2.2 0 4-1.8 4-4V4C18.097 1.8 16.3 0 14.1 0L14.097 0z" class="style1"/></g></svg>