<?xml version="1.0" encoding="utf-8"?>
<!-- Generator: Adobe Illustrator 15.0.0, SVG Export Plug-In . SVG Version: 6.00 Build 0)  -->
<!DOCTYPE svg PUBLIC "-//W3C//DTD SVG 1.1//EN" "http://www.w3.org/Graphics/SVG/1.1/DTD/svg11.dtd">
<svg version="1.1" id="Layer_1" xmlns="http://www.w3.org/2000/svg" xmlns:xlink="http://www.w3.org/1999/xlink" x="0px" y="0px"
	 width="19.358px" height="19.356px" viewBox="0 0 19.358 19.356" enable-background="new 0 0 19.358 19.356" xml:space="preserve">
<g>
	<path fill="#EB632E" d="M7.158,4.572c-0.297-0.175-0.68-0.078-0.857,0.218C6.125,5.087,6.223,5.471,6.52,5.647l6.783,4.028
		L6.52,13.707c-0.297,0.176-0.395,0.56-0.218,0.856c0.117,0.196,0.325,0.306,0.538,0.306c0.109,0,0.219-0.028,0.319-0.088
		l7.687-4.569c0.189-0.112,0.306-0.317,0.306-0.537c0-0.221-0.116-0.425-0.306-0.538L7.158,4.572z"/>
	<path fill="#EB632E" d="M9.679,0C4.342,0,0,4.341,0,9.677c0,5.337,4.342,9.679,9.679,9.679c5.337,0,9.679-4.342,9.679-9.679
		C19.358,4.341,15.016,0,9.679,0z M9.679,18.106c-4.647,0-8.429-3.781-8.429-8.429c0-4.647,3.781-8.427,8.429-8.427
		c4.648,0,8.429,3.78,8.429,8.427C18.108,14.325,14.327,18.106,9.679,18.106z"/>
</g>
</svg>
