<svg xmlns="http://www.w3.org/2000/svg" xmlns:xlink="http://www.w3.org/1999/xlink" version="1.1" x="0px" y="0px" width="17.547px" height="17.545px" viewBox="0 0 17.547 17.545" enable-background="new 0 0 17.547 17.545" xml:space="preserve"><style>.style0{fill:	#F1EDEC;}</style><g><path d="M8.771 0C3.935 0 0 3.9 0 8.772s3.935 8.8 8.8 8.772c4.839 0 8.775-3.936 8.775-8.772 S13.61 0 8.8 0z M8.771 16.295c-4.147 0-7.521-3.375-7.521-7.522c0-4.148 3.374-7.522 7.521-7.522 c4.149 0 7.5 3.4 7.5 7.522C16.297 12.9 12.9 16.3 8.8 16.295z" class="style0"/><path d="M13.559 8.147h-4.16V3.989c0-0.345-0.28-0.625-0.625-0.625s-0.625 0.28-0.625 0.625v4.158h-4.16 c-0.345 0-0.625 0.28-0.625 0.625s0.28 0.6 0.6 0.625h4.16v4.161c0 0.3 0.3 0.6 0.6 0.625s0.625-0.28 0.625-0.625V9.397 h4.16c0.345 0 0.625-0.28 0.625-0.625S13.903 8.1 13.6 8.147z" class="style0"/></g></svg>