<svg xmlns="http://www.w3.org/2000/svg" xmlns:xlink="http://www.w3.org/1999/xlink" version="1.1" x="0px" y="0px" width="19.357px" height="19.355px" viewBox="0 0 19.357 19.355" enable-background="new 0 0 19.357 19.355" xml:space="preserve"><style>.style0{fill:	#F1EDEC;}</style><g><path d="M9.678 0C4.342 0 0 4.3 0 9.678s4.342 9.7 9.7 9.677c5.337 0 9.68-4.341 9.68-9.677S15.015 0 9.7 0 z M9.678 18.105c-4.647 0-8.428-3.78-8.428-8.427S5.03 1.2 9.7 1.25c4.648 0 8.4 3.8 8.4 8.428S14.326 18.1 9.7 18.105z " class="style0"/><path d="M14.996 9.053h-4.692V4.363c0-0.345-0.28-0.625-0.625-0.625s-0.625 0.28-0.625 0.625v4.689h-4.69 c-0.345 0-0.625 0.28-0.625 0.625s0.28 0.6 0.6 0.625h4.69v4.693c0 0.3 0.3 0.6 0.6 0.625s0.625-0.28 0.625-0.625 v-4.693h4.692c0.345 0 0.625-0.279 0.625-0.625S15.341 9.1 15 9.053z" class="style0"/></g></svg>