<svg xmlns="http://www.w3.org/2000/svg" xmlns:xlink="http://www.w3.org/1999/xlink" version="1.1" x="0px" y="0px" width="19.357px" height="19.355px" viewBox="0 0 19.357 19.355" enable-background="new 0 0 19.357 19.355" xml:space="preserve"><style>.style0{opacity:	0.46;}</style><path d="M9.678 0C4.341 0 0 4.3 0 9.678c0 5.3 4.3 9.7 9.7 9.678c5.337 0 9.68-4.342 9.68-9.678 C19.357 4.3 15 0 9.7 0z M14.608 14.608c-0.122 0.122-0.282 0.183-0.442 0.183s-0.32-0.061-0.442-0.183l-4.045-4.046 l-4.045 4.046c-0.122 0.121-0.282 0.183-0.442 0.183s-0.32-0.061-0.442-0.183c-0.244-0.244-0.244-0.641 0-0.885l4.045-4.045 L4.75 5.633c-0.244-0.244-0.244-0.64 0-0.884s0.64-0.244 0.9 0l4.044 4.044l4.044-4.044c0.244-0.244 0.641-0.244 0.9 0 c0.243 0.2 0.2 0.6 0 0.884l-4.044 4.045l4.045 4.045C14.852 14 14.9 14.4 14.6 14.608z" class="style0"/></svg>