<svg xmlns="http://www.w3.org/2000/svg" xmlns:xlink="http://www.w3.org/1999/xlink" version="1.1" x="0px" y="0px" width="26.633px" height="26.635px" viewBox="0 0 26.633 26.635" enable-background="new 0 0 26.633 26.635" xml:space="preserve"><style>.style0{fill:	#608688;}</style><path d="M13.315 0C5.973 0 0 6 0 13.315c0 7.3 6 13.3 13.3 13.32c7.343 0 13.317-5.976 13.317-13.32 C26.633 6 20.7 0 13.3 0z M1.5 13.315C1.5 6.8 6.8 1.5 13.3 1.5c3.029 0 5.8 1.2 7.9 3.036L4.536 21.2 C2.655 19.1 1.5 16.3 1.5 13.315z M13.315 25.135c-2.947 0-5.64-1.093-7.711-2.885L22.249 5.6 c1.792 2.1 2.9 4.8 2.9 7.711C25.133 19.8 19.8 25.1 13.3 25.135z" class="style0"/></svg>