<svg xmlns="http://www.w3.org/2000/svg" xmlns:xlink="http://www.w3.org/1999/xlink" version="1.1" x="0px" y="0px" width="19.635px" height="19.637px" viewBox="0 0 19.635 19.637" enable-background="new 0 0 19.635 19.637" xml:space="preserve"><style>.style0{fill:	#EC632F;}</style><g><path d="M9.818 0C4.404 0 0 4.4 0 9.818c0 5.4 4.4 9.8 9.8 9.818c5.413 0 9.816-4.403 9.816-9.818 C19.616 4.4 15.2 0 9.8 0H9.818z M9.818 18.387c-4.725 0-8.568-3.844-8.568-8.568S5.094 1.2 9.8 1.25c4.725 0 8.6 3.8 8.6 8.6 s-3.857 8.55-8.6 8.537H9.818z" class="style0"/><path d="M16.718 9.09c0.016-0.022 0.033-0.041 0.045-0.065c0.036-0.08 0.061-0.166 0.061-0.26 c0-0.094-0.023-0.18-0.061-0.26c-0.013-0.025-0.031-0.043-0.046-0.066c-0.032-0.053-0.067-0.101-0.114-0.141 c-0.011-0.008-0.015-0.021-0.023-0.028l-4.912-3.773c-0.271-0.21-0.666-0.16-0.877 0.115c-0.21 0.273-0.158 0.7 0.1 0.9 l3.452 2.652L10.27 8.162c-2.068-0.013-3.437-0.02-4.312 0.851c-0.606 0.604-0.876 1.556-0.876 3.091v2.315 c0 0.3 0.3 0.6 0.6 0.625c0.3 0 0.625-0.28 0.625-0.625v-2.315c0-1.16 0.162-1.859 0.508-2.205 c0.507-0.503 1.67-0.497 3.424-0.487l4.084 0.002l-3.457 2.658c-0.273 0.21-0.325 0.603-0.114 0.9c0.123 0.2 0.3 0.2 0.5 0.2 c0.134 0 0.269-0.042 0.381-0.13l4.912-3.777c0.011-0.007 0.015-0.02 0.022-0.028C16.647 9.2 16.7 9.1 16.7 9.09H16.718z" class="style0"/></g></svg>