<?xml version="1.0" encoding="utf-8"?>
<!-- Generator: Adobe Illustrator 15.0.0, SVG Export Plug-In . SVG Version: 6.00 Build 0)  -->
<!DOCTYPE svg PUBLIC "-//W3C//DTD SVG 1.1//EN" "http://www.w3.org/Graphics/SVG/1.1/DTD/svg11.dtd">
<svg version="1.1" id="Layer_1" xmlns="http://www.w3.org/2000/svg" xmlns:xlink="http://www.w3.org/1999/xlink" x="0px" y="0px"
	 width="19.357px" height="19.355px" viewBox="0 0 19.357 19.355" enable-background="new 0 0 19.357 19.355" xml:space="preserve">
<g>
	<path fill="#608688" d="M7.158,4.572C6.861,4.395,6.477,4.493,6.302,4.79C6.125,5.087,6.223,5.47,6.52,5.646l6.783,4.029
		L6.52,13.707c-0.297,0.176-0.395,0.56-0.218,0.856c0.117,0.196,0.324,0.306,0.538,0.306c0.109,0,0.219-0.028,0.319-0.088
		l7.688-4.568c0.189-0.112,0.306-0.317,0.306-0.537c0-0.221-0.116-0.425-0.306-0.537L7.158,4.572z"/>
	<path fill="#608688" d="M9.679,0C4.342,0,0,4.341,0,9.678c0,5.336,4.342,9.678,9.679,9.678s9.679-4.342,9.679-9.678
		C19.357,4.341,15.016,0,9.679,0z M9.679,18.105c-4.647,0-8.429-3.78-8.429-8.428c0-4.647,3.781-8.428,8.429-8.428
		s8.429,3.781,8.429,8.428C18.107,14.325,14.326,18.105,9.679,18.105z"/>
</g>
</svg>
