<?xml version="1.0" encoding="utf-8"?>
<!-- Generator: Adobe Illustrator 16.0.4, SVG Export Plug-In . SVG Version: 6.00 Build 0)  -->
<!DOCTYPE svg PUBLIC "-//W3C//DTD SVG 1.1//EN" "http://www.w3.org/Graphics/SVG/1.1/DTD/svg11.dtd">
<svg version="1.1" xmlns="http://www.w3.org/2000/svg" xmlns:xlink="http://www.w3.org/1999/xlink" x="0px" y="0px" width="792px"
	 height="612px" viewBox="0 0 792 612" enable-background="new 0 0 792 612" xml:space="preserve">
<g id="Layer_1">
</g>
<g id="Type">
	<g>
		<g>
			<path fill="#FFFFFF" d="M396,221.621c-83.471,0-167.422-11.676-230.223-34.473l182.959,199.242v125.168
				c0,22.328,21.15,40.441,47.264,40.441c26.082,0,47.264-18.113,47.264-40.441V386.391l182.975-199.242
				C563.406,209.945,479.471,221.621,396,221.621z"/>
		</g>
		<path fill="#FFFFFF" d="M623.68,125.652c0,27.707-101.939,50.145-227.68,50.145c-125.758,0-227.695-22.438-227.695-50.145
			c0-27.711,101.938-50.195,227.695-50.195C521.74,75.457,623.68,97.941,623.68,125.652z"/>
	</g>
</g>
</svg>
