<?xml version="1.0" encoding="utf-8"?>
<!-- Generator: Adobe Illustrator 20.0.0, SVG Export Plug-In . SVG Version: 6.00 Build 0)  -->
<!DOCTYPE svg PUBLIC "-//W3C//DTD SVG 1.1//EN" "http://www.w3.org/Graphics/SVG/1.1/DTD/svg11.dtd" [
	<!ENTITY st0 "fill:#3BBBB8;">
]>
<svg version="1.1" id="Layer_1" xmlns="http://www.w3.org/2000/svg" xmlns:xlink="http://www.w3.org/1999/xlink" x="0px" y="0px"
	 width="128px" height="128px" viewBox="0 0 128 128" style="enable-background:new 0 0 128 128;" xml:space="preserve">
<path style="&st0;" d="M58.09814,62.75391c-2.30664,0-4.18311-1.87695-4.18311-4.18359c0-2.30615,1.87646-4.18262,4.18311-4.18262
	s4.18311,1.87646,4.18311,4.18262C62.28125,60.87695,60.40479,62.75391,58.09814,62.75391z M58.09814,55.3877
	c-1.75537,0-3.18311,1.42773-3.18311,3.18262c0,1.75537,1.42773,3.18359,3.18311,3.18359s3.18311-1.42822,3.18311-3.18359
	C61.28125,56.81543,59.85352,55.3877,58.09814,55.3877z"/>
<path style="&st0;" d="M68.81152,63.87793c-2.06543,0-3.74512-1.68018-3.74512-3.74561c0-2.06494,1.67969-3.74463,3.74512-3.74463
	s3.74512,1.67969,3.74512,3.74463C72.55664,62.19775,70.87695,63.87793,68.81152,63.87793z M68.81152,57.3877
	c-1.51367,0-2.74512,1.23145-2.74512,2.74463c0,1.51416,1.23145,2.74561,2.74512,2.74561s2.74512-1.23145,2.74512-2.74561
	C71.55664,58.61914,70.3252,57.3877,68.81152,57.3877z"/>
<path style="&st0;" d="M74.93945,67.84863c-0.41797-1.81543-2.17188-3.23828-3.99316-3.23828h-4.05566
	c-0.95129,0-1.90625,0.41852-2.67499,1.1142c-0.87079-1.18347-2.27716-2.00482-3.69464-2.00482h-4.60303
	c-2.00293,0-4.00684,1.625-4.4668,3.62305L50.3335,72.2041h15.14404h0.62793h9.83496L74.93945,67.84863z M51.58936,71.2041
	l0.83643-3.63672c0.36133-1.57031,1.92773-2.84766,3.49219-2.84766H60.521c1.56445,0,3.13135,1.27734,3.49219,2.84766
	l0.83643,3.63672H51.58936z M65.87555,71.2041l-0.88776-3.86133c-0.05829-0.25342-0.14227-0.50037-0.24707-0.7392
	c0.60516-0.61011,1.39728-0.99323,2.1499-0.99323h4.05566c1.35156,0,2.70605,1.10449,3.01855,2.46289l0.71973,3.13086H65.87555z"/>
</svg>
