<?xml version="1.0" encoding="utf-8"?>
<!-- Generator: Adobe Illustrator 20.0.0, SVG Export Plug-In . SVG Version: 6.00 Build 0)  -->
<!DOCTYPE svg PUBLIC "-//W3C//DTD SVG 1.1//EN" "http://www.w3.org/Graphics/SVG/1.1/DTD/svg11.dtd" [
	<!ENTITY st0 "fill:#866EC4;">
]>
<svg version="1.1" id="Layer_1" xmlns="http://www.w3.org/2000/svg" xmlns:xlink="http://www.w3.org/1999/xlink" x="0px" y="0px"
	 width="46.88379px" height="25.91162px" viewBox="0 0 46.88379 25.91162" style="enable-background:new 0 0 46.88379 25.91162;"
	 xml:space="preserve">
<path style="&st0;" d="M11.2002,11.9126c-3.28418,0-5.95605-2.67188-5.95605-5.95654C5.24414,2.67188,7.91602,0,11.2002,0
	c3.28467,0,5.95654,2.67188,5.95654,5.95605C17.15674,9.24072,14.48486,11.9126,11.2002,11.9126z M11.2002,1
	C8.46729,1,6.24414,3.22314,6.24414,5.95605s2.22314,4.95654,4.95605,4.95654s4.95654-2.22363,4.95654-4.95654S13.93311,1,11.2002,1
	z"/>
<path style="&st0;" d="M27.07031,13.57764c-2.92627,0-5.30664-2.38086-5.30664-5.30762c0-2.92627,2.38037-5.30713,5.30664-5.30713
	c2.92676,0,5.30762,2.38086,5.30762,5.30713C32.37793,11.19678,29.99707,13.57764,27.07031,13.57764z M27.07031,3.96289
	c-2.37451,0-4.30664,1.93213-4.30664,4.30713s1.93213,4.30762,4.30664,4.30762c2.375,0,4.30762-1.93262,4.30762-4.30762
	S29.44531,3.96289,27.07031,3.96289z"/>
<path style="&st0;" d="M35.91504,19.75439c-0.58594-2.54297-3.13477-4.61133-5.68164-4.61133h-6.0083
	c-1.42883,0-2.88428,0.64185-4.00671,1.74237c-1.22858-1.79993-3.32513-3.06073-5.42883-3.06073H7.9707
	c-2.8623,0-5.72559,2.32422-6.38281,5.18164L0,25.91162h22.13232h0.62793h14.56982L35.91504,19.75439z M1.25586,24.91162
	l1.30664-5.68066c0.55859-2.42969,2.98486-4.40625,5.4082-4.40625h6.81885c2.42334,0,4.84961,1.97656,5.4082,4.40625
	l1.30664,5.68066H1.25586z M22.53027,24.91162l-1.35791-5.90527c-0.09625-0.41846-0.25195-0.81976-0.43585-1.20972
	c0.95288-1.02338,2.26013-1.65356,3.48859-1.65356h6.0083c2.1084,0,4.21973,1.7207,4.70703,3.83594l1.13379,4.93262H22.53027z"/>
<polygon style="&st0;" points="40.58008,14.18604 36.46289,9.93066 37.18164,9.23535 40.49609,12.66113 46.09277,5.43652 
	46.88379,6.04883 "/>
</svg>
