<?xml version="1.0" encoding="utf-8"?>
<!-- Generator: Adobe Illustrator 20.0.0, SVG Export Plug-In . SVG Version: 6.00 Build 0)  -->
<!DOCTYPE svg PUBLIC "-//W3C//DTD SVG 1.1//EN" "http://www.w3.org/Graphics/SVG/1.1/DTD/svg11.dtd" [
	<!ENTITY st0 "fill:#3BBBB8;">
]>
<svg version="1.1" id="Layer_1" xmlns="http://www.w3.org/2000/svg" xmlns:xlink="http://www.w3.org/1999/xlink" x="0px" y="0px"
	 width="15.77197px" height="17.81641px" viewBox="0 0 15.77197 17.81641" style="enable-background:new 0 0 15.77197 17.81641;"
	 xml:space="preserve">
<g>
	<g>
		<path style="&st0;" d="M7.76465,8.36621c-2.30664,0-4.18311-1.87646-4.18311-4.18311S5.45801,0,7.76465,0
			c2.30615,0,4.18311,1.87646,4.18311,4.18311S10.0708,8.36621,7.76465,8.36621z M7.76465,1
			C6.00928,1,4.58154,2.42773,4.58154,4.18311s1.42773,3.18311,3.18311,3.18311s3.18311-1.42773,3.18311-3.18311
			S9.52002,1,7.76465,1z"/>
	</g>
	<g>
		<path style="&st0;" d="M15.77197,17.81641H0l1.11768-4.86133c0.45996-1.99707,2.46387-3.62256,4.4668-3.62256h4.60352
			c2.00293,0,4.00684,1.62549,4.4668,3.62256L15.77197,17.81641z M1.25586,16.81641h13.26025l-0.83594-3.63672
			c-0.36133-1.57031-1.92773-2.84717-3.49219-2.84717H5.58447c-1.56445,0-3.13086,1.27686-3.49219,2.84717L1.25586,16.81641z"/>
	</g>
</g>
</svg>
