<?xml version="1.0" encoding="utf-8"?>
<!-- Generator: Adobe Illustrator 20.0.0, SVG Export Plug-In . SVG Version: 6.00 Build 0)  -->
<!DOCTYPE svg PUBLIC "-//W3C//DTD SVG 1.1//EN" "http://www.w3.org/Graphics/SVG/1.1/DTD/svg11.dtd" [
	<!ENTITY st0 "fill:#3BBBB8;">
]>
<svg version="1.1" id="Layer_1" xmlns="http://www.w3.org/2000/svg" xmlns:xlink="http://www.w3.org/1999/xlink" x="0px" y="0px"
	 width="11.0835px" height="11.0835px" viewBox="0 0 11.0835 11.0835" style="enable-background:new 0 0 11.0835 11.0835;"
	 xml:space="preserve">
<path style="&st0;" d="M5.54169,0C2.48114,0,0,2.48108,0,5.54169c0,3.06073,2.48114,5.54181,5.54169,5.54181
	c3.06073,0,5.54181-2.48108,5.54181-5.54181C11.0835,2.48108,8.60242,0,5.54169,0z M8.60547,6.37512
	c-0.41406,0-0.75-0.33594-0.75-0.75c0-1.27783-1.03955-2.31738-2.31738-2.31738c-0.41406,0-0.75-0.33594-0.75-0.75
	s0.33594-0.75,0.75-0.75c2.10449,0,3.81738,1.7124,3.81738,3.81738C9.35547,6.03918,9.01953,6.37512,8.60547,6.37512z"/>
</svg>
