<?xml version="1.0" encoding="utf-8"?>
<!-- Generator: Adobe Illustrator 21.0.0, SVG Export Plug-In . SVG Version: 6.00 Build 0)  -->
<svg version="1.1" id="Layer_1" xmlns="http://www.w3.org/2000/svg" xmlns:xlink="http://www.w3.org/1999/xlink" x="0px" y="0px"
	 viewBox="0 0 50.5 49.5" style="enable-background:new 0 0 50.5 49.5;" xml:space="preserve">
<style type="text/css">
	.st0{fill:#3BBBB8;}
</style>
<g>
	<path class="st0" d="M25.2,0C11.3,0,0,11.1,0,24.7c0,13.6,11.3,24.7,25.2,24.7c13.9,0,25.2-11.1,25.2-24.7C50.5,11.1,39.2,0,25.2,0
		z M25.2,48.5C11.9,48.5,1,37.8,1,24.7C1,11.6,11.9,1,25.2,1c13.4,0,24.2,10.6,24.2,23.7C49.5,37.8,38.6,48.5,25.2,48.5z"/>
	<path class="st0" d="M37.3,22.4l-15.8-9c-0.9-0.5-1.9-0.5-2.7,0c-0.9,0.5-1.4,1.4-1.4,2.4v17.9c0,1,0.5,1.9,1.4,2.4
		c0.4,0.3,0.9,0.4,1.4,0.4c0.5,0,0.9-0.1,1.3-0.4l15.8-9c0.9-0.5,1.4-1.4,1.4-2.4S38.2,22.8,37.3,22.4z M36.8,26.2l-15.8,9
		c-0.5,0.3-1.2,0.3-1.7,0c-0.5-0.3-0.9-0.9-0.9-1.5V15.8c0-0.6,0.3-1.2,0.9-1.5c0.5-0.3,1.2-0.3,1.7,0l15.8,9
		c0.6,0.3,0.9,0.9,0.9,1.5S37.4,25.9,36.8,26.2z"/>
</g>
</svg>
