<?xml version="1.0" encoding="utf-8"?>
<!-- Generator: Adobe Illustrator 20.0.0, SVG Export Plug-In . SVG Version: 6.00 Build 0)  -->
<!DOCTYPE svg PUBLIC "-//W3C//DTD SVG 1.1//EN" "http://www.w3.org/Graphics/SVG/1.1/DTD/svg11.dtd" [
	<!ENTITY st0 "fill:#3BBBB8;">
]>
<svg version="1.1" id="Layer_1" xmlns="http://www.w3.org/2000/svg" xmlns:xlink="http://www.w3.org/1999/xlink" x="0px" y="0px"
	 width="21.95361px" height="18.24316px" viewBox="0 0 21.95361 18.24316" style="enable-background:new 0 0 21.95361 18.24316;"
	 xml:space="preserve">
<path style="&st0;" d="M21.94049,7.80365c-0.00293-0.02209-0.00677-0.04102-0.01257-0.0625
	c-0.02307-0.08539-0.05969-0.16479-0.1203-0.22559c-0.00024-0.00024-0.00024-0.00067-0.00049-0.00092L14.4657,0.18732
	c-0.06958-0.08484-0.16437-0.14124-0.27527-0.16595c-0.01581-0.00397-0.02979-0.0069-0.0459-0.00928
	C14.12396,0.00952,14.10577,0,14.08447,0H2.5C1.12158,0,0,1.12158,0,2.5v13.24316c0,1.37891,1.12158,2.5,2.5,2.5h16.95361
	c1.37891,0,2.5-1.12109,2.5-2.5V7.86865C21.95361,7.84558,21.94348,7.82587,21.94049,7.80365z M14.58447,1.71924l5.66016,5.64941
	h-5.66016V1.71924z M20.95361,15.74316c0,0.82715-0.67285,1.5-1.5,1.5H2.5c-0.82715,0-1.5-0.67285-1.5-1.5V2.5
	C1,1.67285,1.67285,1,2.5,1h11.07172l0.01276,6.86963c0.00006,0.02179,0.00983,0.04034,0.01257,0.0614
	c0.03192,0.24542,0.23322,0.43762,0.48743,0.43762h6.86914V15.74316z"/>
<path style="&st0;" d="M13.26318,13.58398v-3.48145c0-0.27637-0.22363-0.5-0.5-0.5s-0.5,0.22363-0.5,0.5v3.48145H9.68359V6.37012
	c0-0.27637-0.22363-0.5-0.5-0.5s-0.5,0.22363-0.5,0.5v7.21387H6.10352V9.60938c0-0.27637-0.22363-0.5-0.5-0.5s-0.5,0.22363-0.5,0.5
	v3.97461H3.39697c-0.27637,0-0.5,0.22363-0.5,0.5s0.22363,0.5,0.5,0.5h15.15332c0.27637,0,0.5-0.22363,0.5-0.5s-0.22363-0.5-0.5-0.5
	h-1.70703v-1.98145c0-0.27637-0.22363-0.5-0.5-0.5s-0.5,0.22363-0.5,0.5v1.98145H13.26318z"/>
</svg>
