<?xml version="1.0" encoding="utf-8"?>
<!-- Generator: Adobe Illustrator 20.0.0, SVG Export Plug-In . SVG Version: 6.00 Build 0)  -->
<!DOCTYPE svg PUBLIC "-//W3C//DTD SVG 1.1//EN" "http://www.w3.org/Graphics/SVG/1.1/DTD/svg11.dtd" [
	<!ENTITY st0 "fill:#3BBBB8;">
]>
<svg version="1.1" id="Layer_1" xmlns="http://www.w3.org/2000/svg" xmlns:xlink="http://www.w3.org/1999/xlink" x="0px" y="0px"
	 width="21.95361px" height="18.24316px" viewBox="0 0 21.95361 18.24316" style="enable-background:new 0 0 21.95361 18.24316;"
	 xml:space="preserve">
<path style="&st0;" d="M21.94049,7.80414c-0.00293-0.02209-0.00677-0.04102-0.01257-0.0625
	c-0.02307-0.08539-0.05969-0.16479-0.1203-0.22559c-0.00024-0.00024-0.00024-0.00067-0.00049-0.00092L14.4657,0.18732
	c-0.06976-0.08508-0.16498-0.1416-0.27625-0.16614c-0.01508-0.00372-0.02844-0.00653-0.04382-0.00885
	C14.12463,0.00964,14.1062,0,14.08447,0H2.5C1.12158,0,0,1.12158,0,2.5v13.24316c0,1.37891,1.12158,2.5,2.5,2.5h16.95361
	c1.37891,0,2.5-1.12109,2.5-2.5V7.86914C21.95361,7.84607,21.94348,7.82635,21.94049,7.80414z M14.58447,1.71924l5.66016,5.6499
	h-5.66016V1.71924z M20.95361,15.74316c0,0.82715-0.67285,1.5-1.5,1.5H2.5c-0.82715,0-1.5-0.67285-1.5-1.5V2.5
	C1,1.67285,1.67285,1,2.5,1h11.07172l0.01276,6.87012c0.00006,0.02179,0.00983,0.04034,0.01257,0.0614
	c0.03192,0.24542,0.23322,0.43762,0.48743,0.43762h6.86914V15.74316z"/>
</svg>
