<?xml version="1.0" encoding="utf-8"?>
<!-- Generator: Adobe Illustrator 21.0.0, SVG Export Plug-In . SVG Version: 6.00 Build 0)  -->
<svg version="1.1" id="Layer_1" xmlns="http://www.w3.org/2000/svg" xmlns:xlink="http://www.w3.org/1999/xlink" x="0px" y="0px"
	 viewBox="0 0 28 24.3" style="enable-background:new 0 0 28 24.3;" xml:space="preserve">
<style type="text/css">
	.st0{fill:#3BBBB8;}
</style>
<g>
	<path class="st0" d="M22,15.7V7.9c0,0,0,0,0-0.1c0,0,0,0,0-0.1c0-0.1-0.1-0.2-0.1-0.2c0,0,0,0,0,0l-7.3-7.3C14.4,0.1,14.3,0,14.2,0
		c0,0,0,0-0.1,0c0,0,0,0-0.1,0H2.5C1.1,0,0,1.1,0,2.5v13.2c0,1.4,1.1,2.5,2.5,2.5h17C20.8,18.2,22,17.1,22,15.7z M14.6,7.4V1.7
		l5.7,5.6H14.6z M1,15.7V2.5C1,1.7,1.7,1,2.5,1h11.1l0,6.9c0,0.3,0.2,0.5,0.5,0.5H21v7.4c0,0.8-0.7,1.5-1.5,1.5h-17
		C1.7,17.2,1,16.6,1,15.7z"/>
	<path class="st0" d="M25,17.7V8.9c0-0.3-0.2-0.5-0.5-0.5S24,8.6,24,8.9v8.9c0,1.4-1.1,2.5-2.5,2.5H4.7c-0.3,0-0.5,0.2-0.5,0.5
		s0.2,0.5,0.5,0.5h16.7C23.4,21.2,25,19.7,25,17.7z"/>
	<path class="st0" d="M27.5,11.4c-0.3,0-0.5,0.2-0.5,0.5v6.9c0,2.5-2,4.5-4.5,4.5H7.8c-0.3,0-0.5,0.2-0.5,0.5s0.2,0.5,0.5,0.5h14.7
		c3,0,5.5-2.5,5.5-5.5v-6.9C28,11.6,27.8,11.4,27.5,11.4z"/>
</g>
</svg>
