<?xml version="1.0" encoding="utf-8"?>
<!-- Generator: Adobe Illustrator 15.0.0, SVG Export Plug-In . SVG Version: 6.00 Build 0)  -->
<!DOCTYPE svg PUBLIC "-//W3C//DTD SVG 1.1//EN" "http://www.w3.org/Graphics/SVG/1.1/DTD/svg11.dtd">
<svg version="1.1" id="Layer_1" xmlns="http://www.w3.org/2000/svg" xmlns:xlink="http://www.w3.org/1999/xlink" x="0px" y="0px"
	 width="16.508px" height="16.507px" viewBox="0 0 16.508 16.507" enable-background="new 0 0 16.508 16.507" xml:space="preserve">
<g>
	<path fill="#EB632E" d="M8.254,0C3.703,0,0,3.702,0,8.253s3.703,8.254,8.254,8.254c4.551,0,8.254-3.703,8.254-8.254
		S12.805,0,8.254,0z M8.254,15.257c-3.862,0-7.004-3.142-7.004-7.004c0-3.861,3.142-7.003,7.004-7.003
		c3.862,0,7.004,3.142,7.004,7.003C15.258,12.115,12.116,15.257,8.254,15.257z"/>
	<path fill="#EB632E" d="M8.254,2.956c-2.921,0-5.297,2.376-5.297,5.298s2.376,5.298,5.297,5.298s5.297-2.377,5.297-5.298
		S11.175,2.956,8.254,2.956z"/>
</g>
</svg>
