<?xml version="1.0" encoding="utf-8"?>
<!-- Generator: Adobe Illustrator 15.0.0, SVG Export Plug-In . SVG Version: 6.00 Build 0)  -->
<!DOCTYPE svg PUBLIC "-//W3C//DTD SVG 1.1//EN" "http://www.w3.org/Graphics/SVG/1.1/DTD/svg11.dtd">
<svg version="1.1" id="Layer_1" xmlns="http://www.w3.org/2000/svg" xmlns:xlink="http://www.w3.org/1999/xlink" x="0px" y="0px"
	 width="24.737px" height="25.209px" viewBox="0 0 24.737 25.209" enable-background="new 0 0 24.737 25.209" xml:space="preserve">
<g>
	<path fill="#282627" d="M12.764,4.035c-0.029-0.023-0.062-0.034-0.093-0.051c-0.024-0.014-0.046-0.03-0.072-0.04
		c-0.145-0.056-0.304-0.057-0.449,0c-0.026,0.01-0.049,0.027-0.074,0.041c-0.031,0.017-0.063,0.028-0.091,0.051L6.301,8.571
		C6.031,8.787,5.987,9.18,6.202,9.449C6.417,9.72,6.811,9.765,7.08,9.548l4.669-3.726v8.544c0,0.345,0.28,0.625,0.625,0.625
		s0.625-0.28,0.625-0.625V5.822l4.664,3.726c0.115,0.092,0.253,0.137,0.39,0.137c0.183,0,0.365-0.081,0.488-0.235
		c0.216-0.27,0.172-0.663-0.099-0.878L12.764,4.035z"/>
	<path fill="#282627" d="M20.112,0H4.625C2.075,0,0,2.075,0,4.625v13.129v2.83v0.585c0,2.228,2.075,4.04,4.625,4.04h15.487
		c2.55,0,4.625-1.812,4.625-4.04v-0.585v-2.83V4.625C24.737,2.075,22.662,0,20.112,0z M1.25,4.625c0-1.861,1.514-3.375,3.375-3.375
		h15.487c1.861,0,3.375,1.514,3.375,3.375v13.129H1.25V4.625z"/>
</g>
</svg>
