<?xml version="1.0" encoding="utf-8"?>
<!-- Generator: Adobe Illustrator 15.0.0, SVG Export Plug-In . SVG Version: 6.00 Build 0)  -->
<!DOCTYPE svg PUBLIC "-//W3C//DTD SVG 1.1//EN" "http://www.w3.org/Graphics/SVG/1.1/DTD/svg11.dtd">
<svg version="1.1" id="Layer_1" xmlns="http://www.w3.org/2000/svg" xmlns:xlink="http://www.w3.org/1999/xlink" x="0px" y="0px"
	 width="24.736px" height="25.21px" viewBox="0 0 24.736 25.21" enable-background="new 0 0 24.736 25.21" xml:space="preserve">
<g>
	<path fill="#EB632E" d="M20.111,0H4.625C2.075,0,0,2.075,0,4.625v13.128v2.832v0.584c0,2.229,2.075,4.041,4.625,4.041h15.486
		c2.55,0,4.625-1.812,4.625-4.041v-0.584v-2.832V4.625C24.736,2.075,22.661,0,20.111,0z M1.25,4.625
		c0-1.861,1.514-3.375,3.375-3.375h15.486c1.861,0,3.375,1.514,3.375,3.375v13.128H1.25V4.625z"/>
	<path fill="#EB632E" d="M12.767,4.035c-0.028-0.022-0.061-0.034-0.092-0.051c-0.025-0.014-0.047-0.03-0.074-0.041
		c-0.145-0.056-0.304-0.057-0.449,0c-0.026,0.01-0.047,0.026-0.072,0.04c-0.031,0.017-0.064,0.028-0.093,0.051L6.304,8.571
		C6.034,8.786,5.99,9.179,6.205,9.449c0.215,0.27,0.609,0.315,0.878,0.099l4.669-3.726v8.544c0,0.345,0.28,0.625,0.625,0.625
		s0.625-0.28,0.625-0.625V5.822l4.663,3.725c0.114,0.092,0.253,0.137,0.39,0.137c0.183,0,0.365-0.081,0.488-0.235
		c0.216-0.27,0.172-0.663-0.099-0.878L12.767,4.035z"/>
</g>
</svg>
