<?xml version="1.0" encoding="utf-8"?>
<!-- Generator: Adobe Illustrator 15.0.0, SVG Export Plug-In . SVG Version: 6.00 Build 0)  -->
<!DOCTYPE svg PUBLIC "-//W3C//DTD SVG 1.1//EN" "http://www.w3.org/Graphics/SVG/1.1/DTD/svg11.dtd">
<svg version="1.1" id="Layer_1" xmlns="http://www.w3.org/2000/svg" xmlns:xlink="http://www.w3.org/1999/xlink" x="0px" y="0px"
	 width="24.737px" height="25.21px" viewBox="0 0 24.737 25.21" enable-background="new 0 0 24.737 25.21" xml:space="preserve">
<g>
	<path fill="#EB632E" d="M17.664,9.342l-4.669,3.726V4.523c0-0.345-0.28-0.625-0.625-0.625s-0.625,0.28-0.625,0.625v8.544
		L7.082,9.342C6.811,9.125,6.419,9.17,6.203,9.44c-0.215,0.27-0.171,0.663,0.098,0.878l5.679,4.536
		c0.029,0.022,0.062,0.034,0.093,0.051c0.025,0.014,0.047,0.03,0.073,0.041c0.073,0.027,0.147,0.045,0.224,0.045
		c0.076,0,0.151-0.018,0.224-0.045c0.027-0.011,0.05-0.027,0.075-0.042c0.03-0.017,0.063-0.027,0.091-0.05l5.684-4.536
		c0.27-0.215,0.314-0.608,0.099-0.878C18.327,9.17,17.934,9.125,17.664,9.342z"/>
	<path fill="#EB632E" d="M20.112,0H4.625C2.075,0,0,2.075,0,4.625v13.129v2.831v0.584c0,2.229,2.075,4.041,4.625,4.041h15.487
		c2.55,0,4.625-1.812,4.625-4.041v-0.584v-2.831V4.625C24.737,2.075,22.662,0,20.112,0z M1.25,4.625
		c0-1.861,1.514-3.375,3.375-3.375h15.487c1.861,0,3.375,1.514,3.375,3.375v13.129H1.25V4.625z"/>
</g>
</svg>
