<svg xmlns="http://www.w3.org/2000/svg" xmlns:xlink="http://www.w3.org/1999/xlink" version="1.1" x="0px" y="0px" width="10.924px" height="24.432px" viewBox="0 0 10.924 24.432" enable-background="new 0 0 10.924 24.432" xml:space="preserve"><style>.style0{fill:	#D7DCDD;}</style><g><path d="M10.299 0C9.954 0 9.7 0.3 9.7 0.625v23.182c0 0.3 0.3 0.6 0.6 0.625s0.625-0.28 0.625-0.625 V0.625C10.924 0.3 10.6 0 10.3 0z" class="style0"/><path d="M5.461 0C5.116 0 4.8 0.3 4.8 0.625v23.182c0 0.3 0.3 0.6 0.6 0.625s0.625-0.28 0.625-0.625 V0.625C6.086 0.3 5.8 0 5.5 0z" class="style0"/><path d="M0.625 0C0.28 0 0 0.3 0 0.625v23.182c0 0.3 0.3 0.6 0.6 0.625s0.625-0.28 0.625-0.625V0.625 C1.25 0.3 1 0 0.6 0z" class="style0"/></g></svg>