<?xml version="1.0" encoding="utf-8"?>
<!-- Generator: Adobe Illustrator 20.0.0, SVG Export Plug-In . SVG Version: 6.00 Build 0)  -->
<!DOCTYPE svg PUBLIC "-//W3C//DTD SVG 1.1//EN" "http://www.w3.org/Graphics/SVG/1.1/DTD/svg11.dtd" [
	<!ENTITY st0 "fill:#828282;">
]>
<svg version="1.1" id="Layer_1" xmlns="http://www.w3.org/2000/svg" xmlns:xlink="http://www.w3.org/1999/xlink" x="0px" y="0px"
	 width="38.99902px" height="25.55664px" viewBox="0 0 38.99902 25.55664" style="enable-background:new 0 0 38.99902 25.55664;"
	 xml:space="preserve">
<path style="&st0;" d="M31.32324,22.30762v-0.00195l-0.10449,0.00195h-3.23633c-0.27637,0-0.5-0.22363-0.5-0.5s0.22363-0.5,0.5-0.5
	l3.25488-0.00488c0.00195,0,0.00586,0,0.00879,0c3.7627,0,6.75293-2.99219,6.75293-6.66992c0-3.68066-2.99512-6.6748-6.67578-6.6748
	c-0.89844,0-1.77051,0.17578-2.59277,0.52246L28.2207,8.69482L28.05859,8.1665C26.74023,3.87988,22.83984,1,18.35303,1
	c-5.43164,0-9.88086,4.25391-10.12939,9.68408l-0.02881,0.62891l-0.60596-0.17041c-0.46875-0.13184-0.94189-0.19873-1.40674-0.19873
	C3.32471,10.94385,1,13.26855,1,16.12598s2.32471,5.18164,5.18213,5.18164c0.07666,0,0.15186-0.00586,0.22705-0.01074
	l0.5332-0.03516l0.0083,0.0459h5.00586c0.27637,0,0.5,0.22363,0.5,0.5s-0.22363,0.5-0.5,0.5l-5.91943-0.00195
	C2.69482,22.22852,0,19.48633,0,16.12598c0-3.40869,2.77344-6.18213,6.18213-6.18213c0.35986,0,0.72314,0.0332,1.08545,0.09912
	C7.82666,4.36475,12.58594,0,18.35303,0c4.75049,0,8.90186,2.93896,10.49268,7.3667c0.7959-0.27148,1.62695-0.40869,2.47754-0.40869
	c4.23242,0,7.67578,3.44287,7.67578,7.6748C38.99902,18.86426,35.55566,22.30762,31.32324,22.30762z"/>
<polygon style="&st0;" points="25.56934,16.91504 20.00049,11.91309 19.49768,12.36523 19.46387,12.36523 19.46387,12.39569 
	14.42969,16.92285 15.09863,17.66699 19.46387,13.74048 19.46387,25.55664 20.46387,25.55664 20.46387,13.67395 24.90137,17.65918 
	"/>
</svg>
