<svg xmlns="http://www.w3.org/2000/svg" xmlns:xlink="http://www.w3.org/1999/xlink" version="1.1" x="0px" y="0px" width="30.021px" height="27.077px" viewBox="0 0 30.021 27.077" enable-background="new 0 0 30.021 27.077" xml:space="preserve"><style>.style0{opacity:	0.46;}</style><path d="M29.2 21.016l-1.846-3.195c-1.925-3.334-5.075-8.79-7-12.124L18.51 2.501c-1.925-3.334-5.074-3.334-7 0 L9.666 5.696c-1.925 3.334-5.075 8.79-7 12.125l-1.844 3.193c-1.925 3.335-0.35 6.1 3.5 6.062H8.01c3.85 0 10.2 0 14 0H25.7 C29.55 27.1 31.1 24.4 29.2 21.016z M15.009 23.261c-1.095 0-1.981-0.887-1.981-1.982c0-1.095 0.887-1.982 1.981-1.982 s1.982 0.9 2 1.982C16.991 22.4 16.1 23.3 15 23.261z M16.211 16.735c0 0.663-0.537 1.203-1.201 1.2 c-0.663 0-1.204-0.54-1.204-1.203l-0.854-7.518c0-1.137 0.922-2.059 2.058-2.059s2.055 0.9 2.1 2.059L16.211 16.735z" class="style0"/></svg>